<?xml version="1.0" encoding="utf-8" standalone="no"?>
<!DOCTYPE svg PUBLIC "-//W3C//DTD SVG 1.1//EN"
  "http://www.w3.org/Graphics/SVG/1.1/DTD/svg11.dtd">
<svg xmlns:xlink="http://www.w3.org/1999/xlink" width="360pt" height="216pt" viewBox="0 0 360 216" xmlns="http://www.w3.org/2000/svg" version="1.1">
 <metadata>
  <rdf:RDF xmlns:dc="http://purl.org/dc/elements/1.1/" xmlns:cc="http://creativecommons.org/ns#" xmlns:rdf="http://www.w3.org/1999/02/22-rdf-syntax-ns#">
   <cc:Work>
    <dc:type rdf:resource="http://purl.org/dc/dcmitype/StillImage"/>
    <dc:date>2026-02-08T09:39:47.771178</dc:date>
    <dc:format>image/svg+xml</dc:format>
    <dc:creator>
     <cc:Agent>
      <dc:title>Matplotlib v3.10.6, https://matplotlib.org/</dc:title>
     </cc:Agent>
    </dc:creator>
   </cc:Work>
  </rdf:RDF>
 </metadata>
 <defs>
  <style type="text/css">*{stroke-linejoin: round; stroke-linecap: butt}</style>
 </defs>
 <g id="figure_1">
  <g id="patch_1">
   <path d="M 0 216 
L 360 216 
L 360 0 
L 0 0 
z
" style="fill: #ffffff"/>
  </g>
  <g id="axes_1">
   <g id="patch_2">
    <path d="M 60.59 170.224 
L 339.615 170.224 
L 339.615 10.8 
L 60.59 10.8 
z
" style="fill: #ffffff"/>
   </g>
   <g id="FillBetweenPolyCollection_1">
    <defs>
     <path id="m1d0054611e" d="M 95.468125 -53.022545 
L 95.468125 -53.735685 
L 96.86325 -53.795712 
L 98.258375 -53.862922 
L 99.6535 -53.936288 
L 101.048625 -53.940392 
L 102.44375 -54.106107 
L 103.838875 -54.2159 
L 105.234 -54.285675 
L 106.629125 -54.356476 
L 108.02425 -54.515521 
L 109.419375 -54.636088 
L 110.8145 -54.806934 
L 112.209625 -54.913648 
L 113.60475 -55.045502 
L 114.999875 -55.259444 
L 116.395 -55.437986 
L 117.790125 -55.671936 
L 119.18525 -55.905887 
L 120.580375 -56.171647 
L 121.9755 -56.497434 
L 123.370625 -56.776533 
L 124.76575 -57.112068 
L 126.160875 -57.490699 
L 127.556 -57.933974 
L 128.951125 -58.486016 
L 130.34625 -58.831812 
L 131.741375 -59.30741 
L 133.1365 -59.906139 
L 134.531625 -60.662375 
L 135.92675 -61.427846 
L 137.321875 -62.174334 
L 138.717 -62.982901 
L 140.112125 -64.070054 
L 141.50725 -65.062293 
L 142.902375 -66.308492 
L 144.2975 -67.713223 
L 145.692625 -68.801403 
L 147.08775 -70.227169 
L 148.482875 -71.771963 
L 149.878 -73.689231 
L 151.273125 -75.516716 
L 152.66825 -77.349331 
L 154.063375 -79.849424 
L 155.4585 -82.175594 
L 156.853625 -84.528955 
L 158.24875 -87.398957 
L 159.643875 -90.411588 
L 161.039 -93.773092 
L 162.434125 -96.829845 
L 163.82925 -100.391439 
L 165.224375 -104.062826 
L 166.6195 -108.22161 
L 168.014625 -112.106426 
L 169.40975 -116.532509 
L 170.804875 -121.011437 
L 172.2 -125.66788 
L 173.595125 -129.886692 
L 174.99025 -135.21523 
L 176.385375 -139.857308 
L 177.7805 -144.833894 
L 179.175625 -150.170129 
L 180.57075 -154.480776 
L 181.965875 -159.372196 
L 183.361 -164.461654 
L 184.756125 -168.795388 
L 186.15125 -173.425153 
L 187.546375 -177.339212 
L 188.9415 -180.616064 
L 190.336625 -184.458809 
L 191.73175 -187.686408 
L 193.126875 -189.884314 
L 194.522 -192.209971 
L 195.917125 -194.365807 
L 197.31225 -195.361638 
L 198.707375 -195.966524 
L 200.1025 -196.459052 
L 201.497625 -195.717181 
L 202.89275 -195.141026 
L 204.287875 -193.882001 
L 205.683 -192.370042 
L 207.078125 -190.104413 
L 208.47325 -186.959929 
L 209.868375 -183.668199 
L 211.2635 -180.196902 
L 212.658625 -176.867719 
L 214.05375 -172.694056 
L 215.448875 -168.379305 
L 216.844 -163.397075 
L 218.239125 -158.493341 
L 219.63425 -153.984144 
L 221.029375 -149.374901 
L 222.4245 -144.124346 
L 223.819625 -139.165203 
L 225.21475 -134.643179 
L 226.609875 -129.366459 
L 228.005 -124.819808 
L 229.400125 -120.329594 
L 230.79525 -115.939937 
L 232.190375 -111.671872 
L 233.5855 -107.803474 
L 234.980625 -103.863249 
L 236.37575 -99.828623 
L 237.770875 -96.491745 
L 239.166 -93.017369 
L 240.561125 -90.001661 
L 241.95625 -87.018787 
L 243.351375 -84.269351 
L 244.7465 -81.609699 
L 246.141625 -79.235303 
L 247.53675 -77.092806 
L 248.931875 -74.989813 
L 250.327 -73.279817 
L 251.722125 -71.524673 
L 253.11725 -69.961409 
L 254.512375 -68.420719 
L 255.9075 -67.326896 
L 257.302625 -65.942174 
L 258.69775 -64.873491 
L 260.092875 -63.844825 
L 261.488 -62.771524 
L 262.883125 -62.092246 
L 264.27825 -61.189278 
L 265.673375 -60.553095 
L 267.0685 -59.895365 
L 268.463625 -59.340758 
L 269.85875 -58.731254 
L 271.253875 -58.198708 
L 272.649 -57.83393 
L 274.044125 -57.392194 
L 275.43925 -56.975597 
L 276.834375 -56.652888 
L 278.2295 -56.380459 
L 279.624625 -56.189604 
L 281.01975 -55.847913 
L 282.414875 -55.633971 
L 283.81 -55.444142 
L 285.205125 -55.258931 
L 286.60025 -55.05012 
L 287.995375 -54.899796 
L 289.3905 -54.740237 
L 290.785625 -54.555539 
L 292.18075 -54.467808 
L 293.575875 -54.304145 
L 294.971 -54.262588 
L 296.366125 -54.17896 
L 297.76125 -54.053263 
L 299.156375 -53.986054 
L 300.5515 -53.930131 
L 301.946625 -54.376998 
L 301.946625 -53.022545 
L 301.946625 -53.022545 
L 300.5515 -53.022545 
L 299.156375 -53.022545 
L 297.76125 -53.022545 
L 296.366125 -53.022545 
L 294.971 -53.022545 
L 293.575875 -53.022545 
L 292.18075 -53.022545 
L 290.785625 -53.022545 
L 289.3905 -53.022545 
L 287.995375 -53.022545 
L 286.60025 -53.022545 
L 285.205125 -53.022545 
L 283.81 -53.022545 
L 282.414875 -53.022545 
L 281.01975 -53.022545 
L 279.624625 -53.022545 
L 278.2295 -53.022545 
L 276.834375 -53.022545 
L 275.43925 -53.022545 
L 274.044125 -53.022545 
L 272.649 -53.022545 
L 271.253875 -53.022545 
L 269.85875 -53.022545 
L 268.463625 -53.022545 
L 267.0685 -53.022545 
L 265.673375 -53.022545 
L 264.27825 -53.022545 
L 262.883125 -53.022545 
L 261.488 -53.022545 
L 260.092875 -53.022545 
L 258.69775 -53.022545 
L 257.302625 -53.022545 
L 255.9075 -53.022545 
L 254.512375 -53.022545 
L 253.11725 -53.022545 
L 251.722125 -53.022545 
L 250.327 -53.022545 
L 248.931875 -53.022545 
L 247.53675 -53.022545 
L 246.141625 -53.022545 
L 244.7465 -53.022545 
L 243.351375 -53.022545 
L 241.95625 -53.022545 
L 240.561125 -53.022545 
L 239.166 -53.022545 
L 237.770875 -53.022545 
L 236.37575 -53.022545 
L 234.980625 -53.022545 
L 233.5855 -53.022545 
L 232.190375 -53.022545 
L 230.79525 -53.022545 
L 229.400125 -53.022545 
L 228.005 -53.022545 
L 226.609875 -53.022545 
L 225.21475 -53.022545 
L 223.819625 -53.022545 
L 222.4245 -53.022545 
L 221.029375 -53.022545 
L 219.63425 -53.022545 
L 218.239125 -53.022545 
L 216.844 -53.022545 
L 215.448875 -53.022545 
L 214.05375 -53.022545 
L 212.658625 -53.022545 
L 211.2635 -53.022545 
L 209.868375 -53.022545 
L 208.47325 -53.022545 
L 207.078125 -53.022545 
L 205.683 -53.022545 
L 204.287875 -53.022545 
L 202.89275 -53.022545 
L 201.497625 -53.022545 
L 200.1025 -53.022545 
L 198.707375 -53.022545 
L 197.31225 -53.022545 
L 195.917125 -53.022545 
L 194.522 -53.022545 
L 193.126875 -53.022545 
L 191.73175 -53.022545 
L 190.336625 -53.022545 
L 188.9415 -53.022545 
L 187.546375 -53.022545 
L 186.15125 -53.022545 
L 184.756125 -53.022545 
L 183.361 -53.022545 
L 181.965875 -53.022545 
L 180.57075 -53.022545 
L 179.175625 -53.022545 
L 177.7805 -53.022545 
L 176.385375 -53.022545 
L 174.99025 -53.022545 
L 173.595125 -53.022545 
L 172.2 -53.022545 
L 170.804875 -53.022545 
L 169.40975 -53.022545 
L 168.014625 -53.022545 
L 166.6195 -53.022545 
L 165.224375 -53.022545 
L 163.82925 -53.022545 
L 162.434125 -53.022545 
L 161.039 -53.022545 
L 159.643875 -53.022545 
L 158.24875 -53.022545 
L 156.853625 -53.022545 
L 155.4585 -53.022545 
L 154.063375 -53.022545 
L 152.66825 -53.022545 
L 151.273125 -53.022545 
L 149.878 -53.022545 
L 148.482875 -53.022545 
L 147.08775 -53.022545 
L 145.692625 -53.022545 
L 144.2975 -53.022545 
L 142.902375 -53.022545 
L 141.50725 -53.022545 
L 140.112125 -53.022545 
L 138.717 -53.022545 
L 137.321875 -53.022545 
L 135.92675 -53.022545 
L 134.531625 -53.022545 
L 133.1365 -53.022545 
L 131.741375 -53.022545 
L 130.34625 -53.022545 
L 128.951125 -53.022545 
L 127.556 -53.022545 
L 126.160875 -53.022545 
L 124.76575 -53.022545 
L 123.370625 -53.022545 
L 121.9755 -53.022545 
L 120.580375 -53.022545 
L 119.18525 -53.022545 
L 117.790125 -53.022545 
L 116.395 -53.022545 
L 114.999875 -53.022545 
L 113.60475 -53.022545 
L 112.209625 -53.022545 
L 110.8145 -53.022545 
L 109.419375 -53.022545 
L 108.02425 -53.022545 
L 106.629125 -53.022545 
L 105.234 -53.022545 
L 103.838875 -53.022545 
L 102.44375 -53.022545 
L 101.048625 -53.022545 
L 99.6535 -53.022545 
L 98.258375 -53.022545 
L 96.86325 -53.022545 
L 95.468125 -53.022545 
z
" style="stroke: #d3d3d3"/>
    </defs>
    <g clip-path="url(#p8a27f74461)">
     <use xlink:href="#m1d0054611e" x="0" y="216" style="fill: #d3d3d3; stroke: #d3d3d3"/>
    </g>
   </g>
   <g id="matplotlib.axis_1">
    <g id="xtick_1">
     <g id="line2d_1">
      <defs>
       <path id="m613640daa3" d="M 0 0 
L 0 3.5 
" style="stroke: #000000; stroke-width: 0.8"/>
      </defs>
      <g>
       <use xlink:href="#m613640daa3" x="60.59" y="170.224" style="stroke: #000000; stroke-width: 0.8"/>
      </g>
     </g>
     <g id="text_1">
      <!-- −400 -->
      <g transform="translate(46.856406 184.822437) scale(0.1 -0.1)">
       <defs>
        <path id="DejaVuSans-2212" d="M 678 2272 
L 4684 2272 
L 4684 1741 
L 678 1741 
L 678 2272 
z
" transform="scale(0.015625)"/>
        <path id="DejaVuSans-34" d="M 2419 4116 
L 825 1625 
L 2419 1625 
L 2419 4116 
z
M 2253 4666 
L 3047 4666 
L 3047 1625 
L 3713 1625 
L 3713 1100 
L 3047 1100 
L 3047 0 
L 2419 0 
L 2419 1100 
L 313 1100 
L 313 1709 
L 2253 4666 
z
" transform="scale(0.015625)"/>
        <path id="DejaVuSans-30" d="M 2034 4250 
Q 1547 4250 1301 3770 
Q 1056 3291 1056 2328 
Q 1056 1369 1301 889 
Q 1547 409 2034 409 
Q 2525 409 2770 889 
Q 3016 1369 3016 2328 
Q 3016 3291 2770 3770 
Q 2525 4250 2034 4250 
z
M 2034 4750 
Q 2819 4750 3233 4129 
Q 3647 3509 3647 2328 
Q 3647 1150 3233 529 
Q 2819 -91 2034 -91 
Q 1250 -91 836 529 
Q 422 1150 422 2328 
Q 422 3509 836 4129 
Q 1250 4750 2034 4750 
z
" transform="scale(0.015625)"/>
       </defs>
       <use xlink:href="#DejaVuSans-2212"/>
       <use xlink:href="#DejaVuSans-34" transform="translate(83.789062 0)"/>
       <use xlink:href="#DejaVuSans-30" transform="translate(147.412109 0)"/>
       <use xlink:href="#DejaVuSans-30" transform="translate(211.035156 0)"/>
      </g>
     </g>
    </g>
    <g id="xtick_2">
     <g id="line2d_2">
      <g>
       <use xlink:href="#m613640daa3" x="95.468125" y="170.224" style="stroke: #000000; stroke-width: 0.8"/>
      </g>
     </g>
     <g id="text_2">
      <!-- −300 -->
      <g transform="translate(81.734531 184.822437) scale(0.1 -0.1)">
       <defs>
        <path id="DejaVuSans-33" d="M 2597 2516 
Q 3050 2419 3304 2112 
Q 3559 1806 3559 1356 
Q 3559 666 3084 287 
Q 2609 -91 1734 -91 
Q 1441 -91 1130 -33 
Q 819 25 488 141 
L 488 750 
Q 750 597 1062 519 
Q 1375 441 1716 441 
Q 2309 441 2620 675 
Q 2931 909 2931 1356 
Q 2931 1769 2642 2001 
Q 2353 2234 1838 2234 
L 1294 2234 
L 1294 2753 
L 1863 2753 
Q 2328 2753 2575 2939 
Q 2822 3125 2822 3475 
Q 2822 3834 2567 4026 
Q 2313 4219 1838 4219 
Q 1578 4219 1281 4162 
Q 984 4106 628 3988 
L 628 4550 
Q 988 4650 1302 4700 
Q 1616 4750 1894 4750 
Q 2613 4750 3031 4423 
Q 3450 4097 3450 3541 
Q 3450 3153 3228 2886 
Q 3006 2619 2597 2516 
z
" transform="scale(0.015625)"/>
       </defs>
       <use xlink:href="#DejaVuSans-2212"/>
       <use xlink:href="#DejaVuSans-33" transform="translate(83.789062 0)"/>
       <use xlink:href="#DejaVuSans-30" transform="translate(147.412109 0)"/>
       <use xlink:href="#DejaVuSans-30" transform="translate(211.035156 0)"/>
      </g>
     </g>
    </g>
    <g id="xtick_3">
     <g id="line2d_3">
      <g>
       <use xlink:href="#m613640daa3" x="130.34625" y="170.224" style="stroke: #000000; stroke-width: 0.8"/>
      </g>
     </g>
     <g id="text_3">
      <!-- −200 -->
      <g transform="translate(116.612656 184.822437) scale(0.1 -0.1)">
       <defs>
        <path id="DejaVuSans-32" d="M 1228 531 
L 3431 531 
L 3431 0 
L 469 0 
L 469 531 
Q 828 903 1448 1529 
Q 2069 2156 2228 2338 
Q 2531 2678 2651 2914 
Q 2772 3150 2772 3378 
Q 2772 3750 2511 3984 
Q 2250 4219 1831 4219 
Q 1534 4219 1204 4116 
Q 875 4013 500 3803 
L 500 4441 
Q 881 4594 1212 4672 
Q 1544 4750 1819 4750 
Q 2544 4750 2975 4387 
Q 3406 4025 3406 3419 
Q 3406 3131 3298 2873 
Q 3191 2616 2906 2266 
Q 2828 2175 2409 1742 
Q 1991 1309 1228 531 
z
" transform="scale(0.015625)"/>
       </defs>
       <use xlink:href="#DejaVuSans-2212"/>
       <use xlink:href="#DejaVuSans-32" transform="translate(83.789062 0)"/>
       <use xlink:href="#DejaVuSans-30" transform="translate(147.412109 0)"/>
       <use xlink:href="#DejaVuSans-30" transform="translate(211.035156 0)"/>
      </g>
     </g>
    </g>
    <g id="xtick_4">
     <g id="line2d_4">
      <g>
       <use xlink:href="#m613640daa3" x="165.224375" y="170.224" style="stroke: #000000; stroke-width: 0.8"/>
      </g>
     </g>
     <g id="text_4">
      <!-- −100 -->
      <g transform="translate(151.490781 184.822437) scale(0.1 -0.1)">
       <defs>
        <path id="DejaVuSans-31" d="M 794 531 
L 1825 531 
L 1825 4091 
L 703 3866 
L 703 4441 
L 1819 4666 
L 2450 4666 
L 2450 531 
L 3481 531 
L 3481 0 
L 794 0 
L 794 531 
z
" transform="scale(0.015625)"/>
       </defs>
       <use xlink:href="#DejaVuSans-2212"/>
       <use xlink:href="#DejaVuSans-31" transform="translate(83.789062 0)"/>
       <use xlink:href="#DejaVuSans-30" transform="translate(147.412109 0)"/>
       <use xlink:href="#DejaVuSans-30" transform="translate(211.035156 0)"/>
      </g>
     </g>
    </g>
    <g id="xtick_5">
     <g id="line2d_5">
      <g>
       <use xlink:href="#m613640daa3" x="200.1025" y="170.224" style="stroke: #000000; stroke-width: 0.8"/>
      </g>
     </g>
     <g id="text_5">
      <!-- 0 -->
      <g transform="translate(196.92125 184.822437) scale(0.1 -0.1)">
       <use xlink:href="#DejaVuSans-30"/>
      </g>
     </g>
    </g>
    <g id="xtick_6">
     <g id="line2d_6">
      <g>
       <use xlink:href="#m613640daa3" x="234.980625" y="170.224" style="stroke: #000000; stroke-width: 0.8"/>
      </g>
     </g>
     <g id="text_6">
      <!-- 100 -->
      <g transform="translate(225.436875 184.822437) scale(0.1 -0.1)">
       <use xlink:href="#DejaVuSans-31"/>
       <use xlink:href="#DejaVuSans-30" transform="translate(63.623047 0)"/>
       <use xlink:href="#DejaVuSans-30" transform="translate(127.246094 0)"/>
      </g>
     </g>
    </g>
    <g id="xtick_7">
     <g id="line2d_7">
      <g>
       <use xlink:href="#m613640daa3" x="269.85875" y="170.224" style="stroke: #000000; stroke-width: 0.8"/>
      </g>
     </g>
     <g id="text_7">
      <!-- 200 -->
      <g transform="translate(260.315 184.822437) scale(0.1 -0.1)">
       <use xlink:href="#DejaVuSans-32"/>
       <use xlink:href="#DejaVuSans-30" transform="translate(63.623047 0)"/>
       <use xlink:href="#DejaVuSans-30" transform="translate(127.246094 0)"/>
      </g>
     </g>
    </g>
    <g id="xtick_8">
     <g id="line2d_8">
      <g>
       <use xlink:href="#m613640daa3" x="304.736875" y="170.224" style="stroke: #000000; stroke-width: 0.8"/>
      </g>
     </g>
     <g id="text_8">
      <!-- 300 -->
      <g transform="translate(295.193125 184.822437) scale(0.1 -0.1)">
       <use xlink:href="#DejaVuSans-33"/>
       <use xlink:href="#DejaVuSans-30" transform="translate(63.623047 0)"/>
       <use xlink:href="#DejaVuSans-30" transform="translate(127.246094 0)"/>
      </g>
     </g>
    </g>
    <g id="xtick_9">
     <g id="line2d_9">
      <g>
       <use xlink:href="#m613640daa3" x="339.615" y="170.224" style="stroke: #000000; stroke-width: 0.8"/>
      </g>
     </g>
     <g id="text_9">
      <!-- 400 -->
      <g transform="translate(330.07125 184.822437) scale(0.1 -0.1)">
       <use xlink:href="#DejaVuSans-34"/>
       <use xlink:href="#DejaVuSans-30" transform="translate(63.623047 0)"/>
       <use xlink:href="#DejaVuSans-30" transform="translate(127.246094 0)"/>
      </g>
     </g>
    </g>
    <g id="text_10">
     <!-- Random (score$_i$ $-$ score$_j$) -->
     <g transform="translate(137.0025 198.502125) scale(0.1 -0.1)">
      <defs>
       <path id="DejaVuSans-52" d="M 2841 2188 
Q 3044 2119 3236 1894 
Q 3428 1669 3622 1275 
L 4263 0 
L 3584 0 
L 2988 1197 
Q 2756 1666 2539 1819 
Q 2322 1972 1947 1972 
L 1259 1972 
L 1259 0 
L 628 0 
L 628 4666 
L 2053 4666 
Q 2853 4666 3247 4331 
Q 3641 3997 3641 3322 
Q 3641 2881 3436 2590 
Q 3231 2300 2841 2188 
z
M 1259 4147 
L 1259 2491 
L 2053 2491 
Q 2509 2491 2742 2702 
Q 2975 2913 2975 3322 
Q 2975 3731 2742 3939 
Q 2509 4147 2053 4147 
L 1259 4147 
z
" transform="scale(0.015625)"/>
       <path id="DejaVuSans-61" d="M 2194 1759 
Q 1497 1759 1228 1600 
Q 959 1441 959 1056 
Q 959 750 1161 570 
Q 1363 391 1709 391 
Q 2188 391 2477 730 
Q 2766 1069 2766 1631 
L 2766 1759 
L 2194 1759 
z
M 3341 1997 
L 3341 0 
L 2766 0 
L 2766 531 
Q 2569 213 2275 61 
Q 1981 -91 1556 -91 
Q 1019 -91 701 211 
Q 384 513 384 1019 
Q 384 1609 779 1909 
Q 1175 2209 1959 2209 
L 2766 2209 
L 2766 2266 
Q 2766 2663 2505 2880 
Q 2244 3097 1772 3097 
Q 1472 3097 1187 3025 
Q 903 2953 641 2809 
L 641 3341 
Q 956 3463 1253 3523 
Q 1550 3584 1831 3584 
Q 2591 3584 2966 3190 
Q 3341 2797 3341 1997 
z
" transform="scale(0.015625)"/>
       <path id="DejaVuSans-6e" d="M 3513 2113 
L 3513 0 
L 2938 0 
L 2938 2094 
Q 2938 2591 2744 2837 
Q 2550 3084 2163 3084 
Q 1697 3084 1428 2787 
Q 1159 2491 1159 1978 
L 1159 0 
L 581 0 
L 581 3500 
L 1159 3500 
L 1159 2956 
Q 1366 3272 1645 3428 
Q 1925 3584 2291 3584 
Q 2894 3584 3203 3211 
Q 3513 2838 3513 2113 
z
" transform="scale(0.015625)"/>
       <path id="DejaVuSans-64" d="M 2906 2969 
L 2906 4863 
L 3481 4863 
L 3481 0 
L 2906 0 
L 2906 525 
Q 2725 213 2448 61 
Q 2172 -91 1784 -91 
Q 1150 -91 751 415 
Q 353 922 353 1747 
Q 353 2572 751 3078 
Q 1150 3584 1784 3584 
Q 2172 3584 2448 3432 
Q 2725 3281 2906 2969 
z
M 947 1747 
Q 947 1113 1208 752 
Q 1469 391 1925 391 
Q 2381 391 2643 752 
Q 2906 1113 2906 1747 
Q 2906 2381 2643 2742 
Q 2381 3103 1925 3103 
Q 1469 3103 1208 2742 
Q 947 2381 947 1747 
z
" transform="scale(0.015625)"/>
       <path id="DejaVuSans-6f" d="M 1959 3097 
Q 1497 3097 1228 2736 
Q 959 2375 959 1747 
Q 959 1119 1226 758 
Q 1494 397 1959 397 
Q 2419 397 2687 759 
Q 2956 1122 2956 1747 
Q 2956 2369 2687 2733 
Q 2419 3097 1959 3097 
z
M 1959 3584 
Q 2709 3584 3137 3096 
Q 3566 2609 3566 1747 
Q 3566 888 3137 398 
Q 2709 -91 1959 -91 
Q 1206 -91 779 398 
Q 353 888 353 1747 
Q 353 2609 779 3096 
Q 1206 3584 1959 3584 
z
" transform="scale(0.015625)"/>
       <path id="DejaVuSans-6d" d="M 3328 2828 
Q 3544 3216 3844 3400 
Q 4144 3584 4550 3584 
Q 5097 3584 5394 3201 
Q 5691 2819 5691 2113 
L 5691 0 
L 5113 0 
L 5113 2094 
Q 5113 2597 4934 2840 
Q 4756 3084 4391 3084 
Q 3944 3084 3684 2787 
Q 3425 2491 3425 1978 
L 3425 0 
L 2847 0 
L 2847 2094 
Q 2847 2600 2669 2842 
Q 2491 3084 2119 3084 
Q 1678 3084 1418 2786 
Q 1159 2488 1159 1978 
L 1159 0 
L 581 0 
L 581 3500 
L 1159 3500 
L 1159 2956 
Q 1356 3278 1631 3431 
Q 1906 3584 2284 3584 
Q 2666 3584 2933 3390 
Q 3200 3197 3328 2828 
z
" transform="scale(0.015625)"/>
       <path id="DejaVuSans-20" transform="scale(0.015625)"/>
       <path id="DejaVuSans-28" d="M 1984 4856 
Q 1566 4138 1362 3434 
Q 1159 2731 1159 2009 
Q 1159 1288 1364 580 
Q 1569 -128 1984 -844 
L 1484 -844 
Q 1016 -109 783 600 
Q 550 1309 550 2009 
Q 550 2706 781 3412 
Q 1013 4119 1484 4856 
L 1984 4856 
z
" transform="scale(0.015625)"/>
       <path id="DejaVuSans-73" d="M 2834 3397 
L 2834 2853 
Q 2591 2978 2328 3040 
Q 2066 3103 1784 3103 
Q 1356 3103 1142 2972 
Q 928 2841 928 2578 
Q 928 2378 1081 2264 
Q 1234 2150 1697 2047 
L 1894 2003 
Q 2506 1872 2764 1633 
Q 3022 1394 3022 966 
Q 3022 478 2636 193 
Q 2250 -91 1575 -91 
Q 1294 -91 989 -36 
Q 684 19 347 128 
L 347 722 
Q 666 556 975 473 
Q 1284 391 1588 391 
Q 1994 391 2212 530 
Q 2431 669 2431 922 
Q 2431 1156 2273 1281 
Q 2116 1406 1581 1522 
L 1381 1569 
Q 847 1681 609 1914 
Q 372 2147 372 2553 
Q 372 3047 722 3315 
Q 1072 3584 1716 3584 
Q 2034 3584 2315 3537 
Q 2597 3491 2834 3397 
z
" transform="scale(0.015625)"/>
       <path id="DejaVuSans-63" d="M 3122 3366 
L 3122 2828 
Q 2878 2963 2633 3030 
Q 2388 3097 2138 3097 
Q 1578 3097 1268 2742 
Q 959 2388 959 1747 
Q 959 1106 1268 751 
Q 1578 397 2138 397 
Q 2388 397 2633 464 
Q 2878 531 3122 666 
L 3122 134 
Q 2881 22 2623 -34 
Q 2366 -91 2075 -91 
Q 1284 -91 818 406 
Q 353 903 353 1747 
Q 353 2603 823 3093 
Q 1294 3584 2113 3584 
Q 2378 3584 2631 3529 
Q 2884 3475 3122 3366 
z
" transform="scale(0.015625)"/>
       <path id="DejaVuSans-72" d="M 2631 2963 
Q 2534 3019 2420 3045 
Q 2306 3072 2169 3072 
Q 1681 3072 1420 2755 
Q 1159 2438 1159 1844 
L 1159 0 
L 581 0 
L 581 3500 
L 1159 3500 
L 1159 2956 
Q 1341 3275 1631 3429 
Q 1922 3584 2338 3584 
Q 2397 3584 2469 3576 
Q 2541 3569 2628 3553 
L 2631 2963 
z
" transform="scale(0.015625)"/>
       <path id="DejaVuSans-65" d="M 3597 1894 
L 3597 1613 
L 953 1613 
Q 991 1019 1311 708 
Q 1631 397 2203 397 
Q 2534 397 2845 478 
Q 3156 559 3463 722 
L 3463 178 
Q 3153 47 2828 -22 
Q 2503 -91 2169 -91 
Q 1331 -91 842 396 
Q 353 884 353 1716 
Q 353 2575 817 3079 
Q 1281 3584 2069 3584 
Q 2775 3584 3186 3129 
Q 3597 2675 3597 1894 
z
M 3022 2063 
Q 3016 2534 2758 2815 
Q 2500 3097 2075 3097 
Q 1594 3097 1305 2825 
Q 1016 2553 972 2059 
L 3022 2063 
z
" transform="scale(0.015625)"/>
       <path id="DejaVuSans-Oblique-69" d="M 1172 4863 
L 1747 4863 
L 1606 4134 
L 1031 4134 
L 1172 4863 
z
M 909 3500 
L 1484 3500 
L 800 0 
L 225 0 
L 909 3500 
z
" transform="scale(0.015625)"/>
       <path id="DejaVuSans-Oblique-6a" d="M 928 3500 
L 1503 3500 
L 813 -63 
L 809 -78 
Q 694 -675 544 -897 
Q 403 -1106 132 -1218 
Q -138 -1331 -506 -1331 
L -722 -1331 
L -628 -844 
L -481 -844 
Q -144 -844 -1 -703 
Q 141 -563 238 -63 
L 928 3500 
z
M 1197 4863 
L 1772 4863 
L 1631 4134 
L 1056 4134 
L 1197 4863 
z
" transform="scale(0.015625)"/>
       <path id="DejaVuSans-29" d="M 513 4856 
L 1013 4856 
Q 1481 4119 1714 3412 
Q 1947 2706 1947 2009 
Q 1947 1309 1714 600 
Q 1481 -109 1013 -844 
L 513 -844 
Q 928 -128 1133 580 
Q 1338 1288 1338 2009 
Q 1338 2731 1133 3434 
Q 928 4138 513 4856 
z
" transform="scale(0.015625)"/>
      </defs>
      <use xlink:href="#DejaVuSans-52" transform="translate(0 0.015625)"/>
      <use xlink:href="#DejaVuSans-61" transform="translate(69.482422 0.015625)"/>
      <use xlink:href="#DejaVuSans-6e" transform="translate(130.761719 0.015625)"/>
      <use xlink:href="#DejaVuSans-64" transform="translate(194.140625 0.015625)"/>
      <use xlink:href="#DejaVuSans-6f" transform="translate(257.617188 0.015625)"/>
      <use xlink:href="#DejaVuSans-6d" transform="translate(318.798828 0.015625)"/>
      <use xlink:href="#DejaVuSans-20" transform="translate(416.210938 0.015625)"/>
      <use xlink:href="#DejaVuSans-28" transform="translate(447.998047 0.015625)"/>
      <use xlink:href="#DejaVuSans-73" transform="translate(487.011719 0.015625)"/>
      <use xlink:href="#DejaVuSans-63" transform="translate(539.111328 0.015625)"/>
      <use xlink:href="#DejaVuSans-6f" transform="translate(594.091797 0.015625)"/>
      <use xlink:href="#DejaVuSans-72" transform="translate(655.273438 0.015625)"/>
      <use xlink:href="#DejaVuSans-65" transform="translate(696.386719 0.015625)"/>
      <use xlink:href="#DejaVuSans-Oblique-69" transform="translate(758.867188 -16.390625) scale(0.7)"/>
      <use xlink:href="#DejaVuSans-20" transform="translate(781.049805 0.015625)"/>
      <use xlink:href="#DejaVuSans-2212" transform="translate(812.836914 0.015625)"/>
      <use xlink:href="#DejaVuSans-20" transform="translate(896.625977 0.015625)"/>
      <use xlink:href="#DejaVuSans-73" transform="translate(928.413086 0.015625)"/>
      <use xlink:href="#DejaVuSans-63" transform="translate(980.512695 0.015625)"/>
      <use xlink:href="#DejaVuSans-6f" transform="translate(1035.493164 0.015625)"/>
      <use xlink:href="#DejaVuSans-72" transform="translate(1096.674805 0.015625)"/>
      <use xlink:href="#DejaVuSans-65" transform="translate(1137.788086 0.015625)"/>
      <use xlink:href="#DejaVuSans-Oblique-6a" transform="translate(1200.268555 -16.390625) scale(0.7)"/>
      <use xlink:href="#DejaVuSans-29" transform="translate(1222.451172 0.015625)"/>
     </g>
    </g>
   </g>
   <g id="matplotlib.axis_2">
    <g id="ytick_1">
     <g id="line2d_10">
      <defs>
       <path id="md3cf3475a2" d="M 0 0 
L -3.5 0 
" style="stroke: #000000; stroke-width: 0.8"/>
      </defs>
      <g>
       <use xlink:href="#md3cf3475a2" x="60.59" y="162.977455" style="stroke: #000000; stroke-width: 0.8"/>
      </g>
     </g>
     <g id="text_11">
      <!-- 0.000 -->
      <g transform="translate(24.961875 166.776673) scale(0.1 -0.1)">
       <defs>
        <path id="DejaVuSans-2e" d="M 684 794 
L 1344 794 
L 1344 0 
L 684 0 
L 684 794 
z
" transform="scale(0.015625)"/>
       </defs>
       <use xlink:href="#DejaVuSans-30"/>
       <use xlink:href="#DejaVuSans-2e" transform="translate(63.623047 0)"/>
       <use xlink:href="#DejaVuSans-30" transform="translate(95.410156 0)"/>
       <use xlink:href="#DejaVuSans-30" transform="translate(159.033203 0)"/>
       <use xlink:href="#DejaVuSans-30" transform="translate(222.65625 0)"/>
      </g>
     </g>
    </g>
    <g id="ytick_2">
     <g id="line2d_11">
      <g>
       <use xlink:href="#md3cf3475a2" x="60.59" y="137.269368" style="stroke: #000000; stroke-width: 0.8"/>
      </g>
     </g>
     <g id="text_12">
      <!-- 0.001 -->
      <g transform="translate(24.961875 141.068586) scale(0.1 -0.1)">
       <use xlink:href="#DejaVuSans-30"/>
       <use xlink:href="#DejaVuSans-2e" transform="translate(63.623047 0)"/>
       <use xlink:href="#DejaVuSans-30" transform="translate(95.410156 0)"/>
       <use xlink:href="#DejaVuSans-30" transform="translate(159.033203 0)"/>
       <use xlink:href="#DejaVuSans-31" transform="translate(222.65625 0)"/>
      </g>
     </g>
    </g>
    <g id="ytick_3">
     <g id="line2d_12">
      <g>
       <use xlink:href="#md3cf3475a2" x="60.59" y="111.561281" style="stroke: #000000; stroke-width: 0.8"/>
      </g>
     </g>
     <g id="text_13">
      <!-- 0.002 -->
      <g transform="translate(24.961875 115.3605) scale(0.1 -0.1)">
       <use xlink:href="#DejaVuSans-30"/>
       <use xlink:href="#DejaVuSans-2e" transform="translate(63.623047 0)"/>
       <use xlink:href="#DejaVuSans-30" transform="translate(95.410156 0)"/>
       <use xlink:href="#DejaVuSans-30" transform="translate(159.033203 0)"/>
       <use xlink:href="#DejaVuSans-32" transform="translate(222.65625 0)"/>
      </g>
     </g>
    </g>
    <g id="ytick_4">
     <g id="line2d_13">
      <g>
       <use xlink:href="#md3cf3475a2" x="60.59" y="85.853194" style="stroke: #000000; stroke-width: 0.8"/>
      </g>
     </g>
     <g id="text_14">
      <!-- 0.003 -->
      <g transform="translate(24.961875 89.652413) scale(0.1 -0.1)">
       <use xlink:href="#DejaVuSans-30"/>
       <use xlink:href="#DejaVuSans-2e" transform="translate(63.623047 0)"/>
       <use xlink:href="#DejaVuSans-30" transform="translate(95.410156 0)"/>
       <use xlink:href="#DejaVuSans-30" transform="translate(159.033203 0)"/>
       <use xlink:href="#DejaVuSans-33" transform="translate(222.65625 0)"/>
      </g>
     </g>
    </g>
    <g id="ytick_5">
     <g id="line2d_14">
      <g>
       <use xlink:href="#md3cf3475a2" x="60.59" y="60.145107" style="stroke: #000000; stroke-width: 0.8"/>
      </g>
     </g>
     <g id="text_15">
      <!-- 0.004 -->
      <g transform="translate(24.961875 63.944326) scale(0.1 -0.1)">
       <use xlink:href="#DejaVuSans-30"/>
       <use xlink:href="#DejaVuSans-2e" transform="translate(63.623047 0)"/>
       <use xlink:href="#DejaVuSans-30" transform="translate(95.410156 0)"/>
       <use xlink:href="#DejaVuSans-30" transform="translate(159.033203 0)"/>
       <use xlink:href="#DejaVuSans-34" transform="translate(222.65625 0)"/>
      </g>
     </g>
    </g>
    <g id="ytick_6">
     <g id="line2d_15">
      <g>
       <use xlink:href="#md3cf3475a2" x="60.59" y="34.43702" style="stroke: #000000; stroke-width: 0.8"/>
      </g>
     </g>
     <g id="text_16">
      <!-- 0.005 -->
      <g transform="translate(24.961875 38.236239) scale(0.1 -0.1)">
       <defs>
        <path id="DejaVuSans-35" d="M 691 4666 
L 3169 4666 
L 3169 4134 
L 1269 4134 
L 1269 2991 
Q 1406 3038 1543 3061 
Q 1681 3084 1819 3084 
Q 2600 3084 3056 2656 
Q 3513 2228 3513 1497 
Q 3513 744 3044 326 
Q 2575 -91 1722 -91 
Q 1428 -91 1123 -41 
Q 819 9 494 109 
L 494 744 
Q 775 591 1075 516 
Q 1375 441 1709 441 
Q 2250 441 2565 725 
Q 2881 1009 2881 1497 
Q 2881 1984 2565 2268 
Q 2250 2553 1709 2553 
Q 1456 2553 1204 2497 
Q 953 2441 691 2322 
L 691 4666 
z
" transform="scale(0.015625)"/>
       </defs>
       <use xlink:href="#DejaVuSans-30"/>
       <use xlink:href="#DejaVuSans-2e" transform="translate(63.623047 0)"/>
       <use xlink:href="#DejaVuSans-30" transform="translate(95.410156 0)"/>
       <use xlink:href="#DejaVuSans-30" transform="translate(159.033203 0)"/>
       <use xlink:href="#DejaVuSans-35" transform="translate(222.65625 0)"/>
      </g>
     </g>
    </g>
    <g id="text_17">
     <!-- PDF -->
     <g transform="translate(18.882187 100.252625) rotate(-90) scale(0.1 -0.1)">
      <defs>
       <path id="DejaVuSans-50" d="M 1259 4147 
L 1259 2394 
L 2053 2394 
Q 2494 2394 2734 2622 
Q 2975 2850 2975 3272 
Q 2975 3691 2734 3919 
Q 2494 4147 2053 4147 
L 1259 4147 
z
M 628 4666 
L 2053 4666 
Q 2838 4666 3239 4311 
Q 3641 3956 3641 3272 
Q 3641 2581 3239 2228 
Q 2838 1875 2053 1875 
L 1259 1875 
L 1259 0 
L 628 0 
L 628 4666 
z
" transform="scale(0.015625)"/>
       <path id="DejaVuSans-44" d="M 1259 4147 
L 1259 519 
L 2022 519 
Q 2988 519 3436 956 
Q 3884 1394 3884 2338 
Q 3884 3275 3436 3711 
Q 2988 4147 2022 4147 
L 1259 4147 
z
M 628 4666 
L 1925 4666 
Q 3281 4666 3915 4102 
Q 4550 3538 4550 2338 
Q 4550 1131 3912 565 
Q 3275 0 1925 0 
L 628 0 
L 628 4666 
z
" transform="scale(0.015625)"/>
       <path id="DejaVuSans-46" d="M 628 4666 
L 3309 4666 
L 3309 4134 
L 1259 4134 
L 1259 2759 
L 3109 2759 
L 3109 2228 
L 1259 2228 
L 1259 0 
L 628 0 
L 628 4666 
z
" transform="scale(0.015625)"/>
      </defs>
      <use xlink:href="#DejaVuSans-50"/>
      <use xlink:href="#DejaVuSans-44" transform="translate(60.302734 0)"/>
      <use xlink:href="#DejaVuSans-46" transform="translate(137.304688 0)"/>
     </g>
    </g>
   </g>
   <g id="line2d_16">
    <path d="M 95.468125 162.310549 
L 103.838875 161.833551 
L 110.8145 161.185694 
L 116.395 160.414116 
L 120.580375 159.626802 
L 124.76575 158.601398 
L 128.951125 157.268539 
L 131.741375 156.166706 
L 134.531625 154.858443 
L 137.321875 153.307719 
L 140.112125 151.473336 
L 142.902375 149.308673 
L 145.692625 146.761661 
L 148.482875 143.775117 
L 151.273125 140.287603 
L 154.063375 136.235047 
L 156.853625 131.553357 
L 159.643875 126.182351 
L 162.434125 120.071253 
L 165.224375 113.186004 
L 168.014625 105.518409 
L 170.804875 97.096909 
L 173.595125 87.99826 
L 177.7805 73.39747 
L 184.756125 48.601906 
L 187.546375 39.541066 
L 190.336625 31.594559 
L 191.73175 28.171834 
L 193.126875 25.182192 
L 194.522 22.669825 
L 195.917125 20.673027 
L 197.31225 19.222985 
L 198.707375 18.342767 
L 200.1025 18.046545 
L 201.497625 18.33912 
L 202.89275 19.215751 
L 204.287875 20.66232 
L 205.683 22.655816 
L 207.078125 25.165096 
L 208.47325 28.151908 
L 209.868375 31.572094 
L 211.2635 35.37692 
L 214.05375 43.931065 
L 216.844 53.385479 
L 228.005 92.596989 
L 230.79525 101.372241 
L 233.5855 109.42543 
L 236.37575 116.705281 
L 239.166 123.202982 
L 241.95625 128.940836 
L 244.7465 133.962239 
L 247.53675 138.323438 
L 250.327 142.08714 
L 253.11725 145.317829 
L 255.9075 148.078529 
L 258.69775 150.42871 
L 261.488 152.423086 
L 264.27825 154.111034 
L 267.0685 155.536459 
L 269.85875 156.737952 
L 272.649 157.749114 
L 276.834375 158.971382 
L 281.01975 159.911035 
L 285.205125 160.632114 
L 290.785625 161.33845 
L 297.76125 161.931276 
L 301.946625 162.17862 
L 301.946625 162.17862 
" clip-path="url(#p8a27f74461)" style="fill: none; stroke: #000000; stroke-linecap: square"/>
   </g>
   <g id="patch_3">
    <path d="M 60.59 170.224 
L 60.59 10.8 
" style="fill: none; stroke: #000000; stroke-width: 0.8; stroke-linejoin: miter; stroke-linecap: square"/>
   </g>
   <g id="patch_4">
    <path d="M 339.615 170.224 
L 339.615 10.8 
" style="fill: none; stroke: #000000; stroke-width: 0.8; stroke-linejoin: miter; stroke-linecap: square"/>
   </g>
   <g id="patch_5">
    <path d="M 60.59 170.224 
L 339.615 170.224 
" style="fill: none; stroke: #000000; stroke-width: 0.8; stroke-linejoin: miter; stroke-linecap: square"/>
   </g>
   <g id="patch_6">
    <path d="M 60.59 10.8 
L 339.615 10.8 
" style="fill: none; stroke: #000000; stroke-width: 0.8; stroke-linejoin: miter; stroke-linecap: square"/>
   </g>
   <g id="text_18">
    <!-- loc=0.0124 -->
    <g transform="translate(252.419687 74.655382) scale(0.1 -0.1)">
     <defs>
      <path id="DejaVuSans-6c" d="M 603 4863 
L 1178 4863 
L 1178 0 
L 603 0 
L 603 4863 
z
" transform="scale(0.015625)"/>
      <path id="DejaVuSans-3d" d="M 678 2906 
L 4684 2906 
L 4684 2381 
L 678 2381 
L 678 2906 
z
M 678 1631 
L 4684 1631 
L 4684 1100 
L 678 1100 
L 678 1631 
z
" transform="scale(0.015625)"/>
     </defs>
     <use xlink:href="#DejaVuSans-6c"/>
     <use xlink:href="#DejaVuSans-6f" transform="translate(27.783203 0)"/>
     <use xlink:href="#DejaVuSans-63" transform="translate(88.964844 0)"/>
     <use xlink:href="#DejaVuSans-3d" transform="translate(143.945312 0)"/>
     <use xlink:href="#DejaVuSans-30" transform="translate(227.734375 0)"/>
     <use xlink:href="#DejaVuSans-2e" transform="translate(291.357422 0)"/>
     <use xlink:href="#DejaVuSans-30" transform="translate(323.144531 0)"/>
     <use xlink:href="#DejaVuSans-31" transform="translate(386.767578 0)"/>
     <use xlink:href="#DejaVuSans-32" transform="translate(450.390625 0)"/>
     <use xlink:href="#DejaVuSans-34" transform="translate(514.013672 0)"/>
    </g>
    <!-- scale=44.3 -->
    <g transform="translate(252.419687 85.853194) scale(0.1 -0.1)">
     <use xlink:href="#DejaVuSans-73"/>
     <use xlink:href="#DejaVuSans-63" transform="translate(52.099609 0)"/>
     <use xlink:href="#DejaVuSans-61" transform="translate(107.080078 0)"/>
     <use xlink:href="#DejaVuSans-6c" transform="translate(168.359375 0)"/>
     <use xlink:href="#DejaVuSans-65" transform="translate(196.142578 0)"/>
     <use xlink:href="#DejaVuSans-3d" transform="translate(257.666016 0)"/>
     <use xlink:href="#DejaVuSans-34" transform="translate(341.455078 0)"/>
     <use xlink:href="#DejaVuSans-34" transform="translate(405.078125 0)"/>
     <use xlink:href="#DejaVuSans-2e" transform="translate(468.701172 0)"/>
     <use xlink:href="#DejaVuSans-33" transform="translate(500.488281 0)"/>
    </g>
   </g>
   <g id="legend_1">
    <g id="patch_7">
     <path d="M 249.169687 48.15625 
L 332.615 48.15625 
Q 334.615 48.15625 334.615 46.15625 
L 334.615 17.8 
Q 334.615 15.8 332.615 15.8 
L 249.169687 15.8 
Q 247.169687 15.8 247.169687 17.8 
L 247.169687 46.15625 
Q 247.169687 48.15625 249.169687 48.15625 
z
" style="fill: #ffffff; opacity: 0.8; stroke: #cccccc; stroke-linejoin: miter"/>
    </g>
    <g id="patch_8">
     <path d="M 251.169687 27.398438 
L 271.169688 27.398438 
L 271.169688 20.398438 
L 251.169687 20.398438 
z
" style="fill: #d3d3d3; stroke: #d3d3d3; stroke-linejoin: miter"/>
    </g>
    <g id="text_19">
     <!-- Measured -->
     <g transform="translate(279.169688 27.398438) scale(0.1 -0.1)">
      <defs>
       <path id="DejaVuSans-4d" d="M 628 4666 
L 1569 4666 
L 2759 1491 
L 3956 4666 
L 4897 4666 
L 4897 0 
L 4281 0 
L 4281 4097 
L 3078 897 
L 2444 897 
L 1241 4097 
L 1241 0 
L 628 0 
L 628 4666 
z
" transform="scale(0.015625)"/>
       <path id="DejaVuSans-75" d="M 544 1381 
L 544 3500 
L 1119 3500 
L 1119 1403 
Q 1119 906 1312 657 
Q 1506 409 1894 409 
Q 2359 409 2629 706 
Q 2900 1003 2900 1516 
L 2900 3500 
L 3475 3500 
L 3475 0 
L 2900 0 
L 2900 538 
Q 2691 219 2414 64 
Q 2138 -91 1772 -91 
Q 1169 -91 856 284 
Q 544 659 544 1381 
z
M 1991 3584 
L 1991 3584 
z
" transform="scale(0.015625)"/>
      </defs>
      <use xlink:href="#DejaVuSans-4d"/>
      <use xlink:href="#DejaVuSans-65" transform="translate(86.279297 0)"/>
      <use xlink:href="#DejaVuSans-61" transform="translate(147.802734 0)"/>
      <use xlink:href="#DejaVuSans-73" transform="translate(209.082031 0)"/>
      <use xlink:href="#DejaVuSans-75" transform="translate(261.181641 0)"/>
      <use xlink:href="#DejaVuSans-72" transform="translate(324.560547 0)"/>
      <use xlink:href="#DejaVuSans-65" transform="translate(363.423828 0)"/>
      <use xlink:href="#DejaVuSans-64" transform="translate(424.947266 0)"/>
     </g>
    </g>
    <g id="line2d_17">
     <path d="M 251.169687 38.576562 
L 261.169688 38.576562 
L 271.169688 38.576562 
" style="fill: none; stroke: #000000; stroke-linecap: square"/>
    </g>
    <g id="text_20">
     <!-- Logistic fit -->
     <g transform="translate(279.169688 42.076562) scale(0.1 -0.1)">
      <defs>
       <path id="DejaVuSans-4c" d="M 628 4666 
L 1259 4666 
L 1259 531 
L 3531 531 
L 3531 0 
L 628 0 
L 628 4666 
z
" transform="scale(0.015625)"/>
       <path id="DejaVuSans-67" d="M 2906 1791 
Q 2906 2416 2648 2759 
Q 2391 3103 1925 3103 
Q 1463 3103 1205 2759 
Q 947 2416 947 1791 
Q 947 1169 1205 825 
Q 1463 481 1925 481 
Q 2391 481 2648 825 
Q 2906 1169 2906 1791 
z
M 3481 434 
Q 3481 -459 3084 -895 
Q 2688 -1331 1869 -1331 
Q 1566 -1331 1297 -1286 
Q 1028 -1241 775 -1147 
L 775 -588 
Q 1028 -725 1275 -790 
Q 1522 -856 1778 -856 
Q 2344 -856 2625 -561 
Q 2906 -266 2906 331 
L 2906 616 
Q 2728 306 2450 153 
Q 2172 0 1784 0 
Q 1141 0 747 490 
Q 353 981 353 1791 
Q 353 2603 747 3093 
Q 1141 3584 1784 3584 
Q 2172 3584 2450 3431 
Q 2728 3278 2906 2969 
L 2906 3500 
L 3481 3500 
L 3481 434 
z
" transform="scale(0.015625)"/>
       <path id="DejaVuSans-69" d="M 603 3500 
L 1178 3500 
L 1178 0 
L 603 0 
L 603 3500 
z
M 603 4863 
L 1178 4863 
L 1178 4134 
L 603 4134 
L 603 4863 
z
" transform="scale(0.015625)"/>
       <path id="DejaVuSans-74" d="M 1172 4494 
L 1172 3500 
L 2356 3500 
L 2356 3053 
L 1172 3053 
L 1172 1153 
Q 1172 725 1289 603 
Q 1406 481 1766 481 
L 2356 481 
L 2356 0 
L 1766 0 
Q 1100 0 847 248 
Q 594 497 594 1153 
L 594 3053 
L 172 3053 
L 172 3500 
L 594 3500 
L 594 4494 
L 1172 4494 
z
" transform="scale(0.015625)"/>
       <path id="DejaVuSans-66" d="M 2375 4863 
L 2375 4384 
L 1825 4384 
Q 1516 4384 1395 4259 
Q 1275 4134 1275 3809 
L 1275 3500 
L 2222 3500 
L 2222 3053 
L 1275 3053 
L 1275 0 
L 697 0 
L 697 3053 
L 147 3053 
L 147 3500 
L 697 3500 
L 697 3744 
Q 697 4328 969 4595 
Q 1241 4863 1831 4863 
L 2375 4863 
z
" transform="scale(0.015625)"/>
      </defs>
      <use xlink:href="#DejaVuSans-4c"/>
      <use xlink:href="#DejaVuSans-6f" transform="translate(53.962891 0)"/>
      <use xlink:href="#DejaVuSans-67" transform="translate(115.144531 0)"/>
      <use xlink:href="#DejaVuSans-69" transform="translate(178.621094 0)"/>
      <use xlink:href="#DejaVuSans-73" transform="translate(206.404297 0)"/>
      <use xlink:href="#DejaVuSans-74" transform="translate(258.503906 0)"/>
      <use xlink:href="#DejaVuSans-69" transform="translate(297.712891 0)"/>
      <use xlink:href="#DejaVuSans-63" transform="translate(325.496094 0)"/>
      <use xlink:href="#DejaVuSans-20" transform="translate(380.476562 0)"/>
      <use xlink:href="#DejaVuSans-66" transform="translate(412.263672 0)"/>
      <use xlink:href="#DejaVuSans-69" transform="translate(447.46875 0)"/>
      <use xlink:href="#DejaVuSans-74" transform="translate(475.251953 0)"/>
     </g>
    </g>
   </g>
  </g>
 </g>
 <defs>
  <clipPath id="p8a27f74461">
   <rect x="60.59" y="10.8" width="279.025" height="159.424"/>
  </clipPath>
 </defs>
</svg>
