<?xml version="1.0" encoding="utf-8" standalone="no"?>
<!DOCTYPE svg PUBLIC "-//W3C//DTD SVG 1.1//EN"
  "http://www.w3.org/Graphics/SVG/1.1/DTD/svg11.dtd">
<svg xmlns:xlink="http://www.w3.org/1999/xlink" width="720pt" height="216pt" viewBox="0 0 720 216" xmlns="http://www.w3.org/2000/svg" version="1.1">
 <metadata>
  <rdf:RDF xmlns:dc="http://purl.org/dc/elements/1.1/" xmlns:cc="http://creativecommons.org/ns#" xmlns:rdf="http://www.w3.org/1999/02/22-rdf-syntax-ns#">
   <cc:Work>
    <dc:type rdf:resource="http://purl.org/dc/dcmitype/StillImage"/>
    <dc:date>2026-02-08T09:43:00.360126</dc:date>
    <dc:format>image/svg+xml</dc:format>
    <dc:creator>
     <cc:Agent>
      <dc:title>Matplotlib v3.10.6, https://matplotlib.org/</dc:title>
     </cc:Agent>
    </dc:creator>
   </cc:Work>
  </rdf:RDF>
 </metadata>
 <defs>
  <style type="text/css">*{stroke-linejoin: round; stroke-linecap: butt}</style>
 </defs>
 <g id="figure_1">
  <g id="patch_1">
   <path d="M 0 216 
L 720 216 
L 720 0 
L 0 0 
z
" style="fill: #ffffff"/>
  </g>
  <g id="axes_1">
   <g id="patch_2">
    <path d="M 44.66 174.04 
L 341.075452 174.04 
L 341.075452 10.8 
L 44.66 10.8 
z
" style="fill: #ffffff"/>
   </g>
   <g id="patch_3">
    <path d="M 88.68881 174.04 
L 90.369578 174.04 
L 90.369578 173.012687 
L 88.68881 173.012687 
z
" clip-path="url(#p79b58d63e1)" style="fill: #d3d3d3; stroke: #d3d3d3; stroke-linejoin: miter"/>
   </g>
   <g id="patch_4">
    <path d="M 90.369578 174.04 
L 92.050347 174.04 
L 92.050347 173.355125 
L 90.369578 173.355125 
z
" clip-path="url(#p79b58d63e1)" style="fill: #d3d3d3; stroke: #d3d3d3; stroke-linejoin: miter"/>
   </g>
   <g id="patch_5">
    <path d="M 92.050347 174.04 
L 93.731115 174.04 
L 93.731115 173.355125 
L 92.050347 173.355125 
z
" clip-path="url(#p79b58d63e1)" style="fill: #d3d3d3; stroke: #d3d3d3; stroke-linejoin: miter"/>
   </g>
   <g id="patch_6">
    <path d="M 93.731115 174.04 
L 95.411883 174.04 
L 95.411883 173.697562 
L 93.731115 173.697562 
z
" clip-path="url(#p79b58d63e1)" style="fill: #d3d3d3; stroke: #d3d3d3; stroke-linejoin: miter"/>
   </g>
   <g id="patch_7">
    <path d="M 95.411883 174.04 
L 97.092651 174.04 
L 97.092651 172.67025 
L 95.411883 172.67025 
z
" clip-path="url(#p79b58d63e1)" style="fill: #d3d3d3; stroke: #d3d3d3; stroke-linejoin: miter"/>
   </g>
   <g id="patch_8">
    <path d="M 97.092651 174.04 
L 98.77342 174.04 
L 98.77342 172.67025 
L 97.092651 172.67025 
z
" clip-path="url(#p79b58d63e1)" style="fill: #d3d3d3; stroke: #d3d3d3; stroke-linejoin: miter"/>
   </g>
   <g id="patch_9">
    <path d="M 98.77342 174.04 
L 100.454188 174.04 
L 100.454188 170.958062 
L 98.77342 170.958062 
z
" clip-path="url(#p79b58d63e1)" style="fill: #d3d3d3; stroke: #d3d3d3; stroke-linejoin: miter"/>
   </g>
   <g id="patch_10">
    <path d="M 100.454188 174.04 
L 102.134956 174.04 
L 102.134956 171.300499 
L 100.454188 171.300499 
z
" clip-path="url(#p79b58d63e1)" style="fill: #d3d3d3; stroke: #d3d3d3; stroke-linejoin: miter"/>
   </g>
   <g id="patch_11">
    <path d="M 102.134956 174.04 
L 103.815724 174.04 
L 103.815724 171.300499 
L 102.134956 171.300499 
z
" clip-path="url(#p79b58d63e1)" style="fill: #d3d3d3; stroke: #d3d3d3; stroke-linejoin: miter"/>
   </g>
   <g id="patch_12">
    <path d="M 103.815724 174.04 
L 105.496493 174.04 
L 105.496493 170.273186 
L 103.815724 170.273186 
z
" clip-path="url(#p79b58d63e1)" style="fill: #d3d3d3; stroke: #d3d3d3; stroke-linejoin: miter"/>
   </g>
   <g id="patch_13">
    <path d="M 105.496493 174.04 
L 107.177261 174.04 
L 107.177261 170.273186 
L 105.496493 170.273186 
z
" clip-path="url(#p79b58d63e1)" style="fill: #d3d3d3; stroke: #d3d3d3; stroke-linejoin: miter"/>
   </g>
   <g id="patch_14">
    <path d="M 107.177261 174.04 
L 108.858029 174.04 
L 108.858029 167.533686 
L 107.177261 167.533686 
z
" clip-path="url(#p79b58d63e1)" style="fill: #d3d3d3; stroke: #d3d3d3; stroke-linejoin: miter"/>
   </g>
   <g id="patch_15">
    <path d="M 108.858029 174.04 
L 110.538797 174.04 
L 110.538797 164.451747 
L 108.858029 164.451747 
z
" clip-path="url(#p79b58d63e1)" style="fill: #d3d3d3; stroke: #d3d3d3; stroke-linejoin: miter"/>
   </g>
   <g id="patch_16">
    <path d="M 110.538797 174.04 
L 112.219566 174.04 
L 112.219566 165.136623 
L 110.538797 165.136623 
z
" clip-path="url(#p79b58d63e1)" style="fill: #d3d3d3; stroke: #d3d3d3; stroke-linejoin: miter"/>
   </g>
   <g id="patch_17">
    <path d="M 112.219566 174.04 
L 113.900334 174.04 
L 113.900334 161.027372 
L 112.219566 161.027372 
z
" clip-path="url(#p79b58d63e1)" style="fill: #d3d3d3; stroke: #d3d3d3; stroke-linejoin: miter"/>
   </g>
   <g id="patch_18">
    <path d="M 113.900334 174.04 
L 115.581102 174.04 
L 115.581102 155.205932 
L 113.900334 155.205932 
z
" clip-path="url(#p79b58d63e1)" style="fill: #d3d3d3; stroke: #d3d3d3; stroke-linejoin: miter"/>
   </g>
   <g id="patch_19">
    <path d="M 115.581102 174.04 
L 117.26187 174.04 
L 117.26187 151.439119 
L 115.581102 151.439119 
z
" clip-path="url(#p79b58d63e1)" style="fill: #d3d3d3; stroke: #d3d3d3; stroke-linejoin: miter"/>
   </g>
   <g id="patch_20">
    <path d="M 117.26187 174.04 
L 118.942639 174.04 
L 118.942639 153.493744 
L 117.26187 153.493744 
z
" clip-path="url(#p79b58d63e1)" style="fill: #d3d3d3; stroke: #d3d3d3; stroke-linejoin: miter"/>
   </g>
   <g id="patch_21">
    <path d="M 118.942639 174.04 
L 120.623407 174.04 
L 120.623407 143.220617 
L 118.942639 143.220617 
z
" clip-path="url(#p79b58d63e1)" style="fill: #d3d3d3; stroke: #d3d3d3; stroke-linejoin: miter"/>
   </g>
   <g id="patch_22">
    <path d="M 120.623407 174.04 
L 122.304175 174.04 
L 122.304175 137.741615 
L 120.623407 137.741615 
z
" clip-path="url(#p79b58d63e1)" style="fill: #d3d3d3; stroke: #d3d3d3; stroke-linejoin: miter"/>
   </g>
   <g id="patch_23">
    <path d="M 122.304175 174.04 
L 123.984943 174.04 
L 123.984943 120.962173 
L 122.304175 120.962173 
z
" clip-path="url(#p79b58d63e1)" style="fill: #d3d3d3; stroke: #d3d3d3; stroke-linejoin: miter"/>
   </g>
   <g id="patch_24">
    <path d="M 123.984943 174.04 
L 125.665712 174.04 
L 125.665712 119.592423 
L 123.984943 119.592423 
z
" clip-path="url(#p79b58d63e1)" style="fill: #d3d3d3; stroke: #d3d3d3; stroke-linejoin: miter"/>
   </g>
   <g id="patch_25">
    <path d="M 125.665712 174.04 
L 127.34648 174.04 
L 127.34648 109.661733 
L 125.665712 109.661733 
z
" clip-path="url(#p79b58d63e1)" style="fill: #d3d3d3; stroke: #d3d3d3; stroke-linejoin: miter"/>
   </g>
   <g id="patch_26">
    <path d="M 127.34648 174.04 
L 129.027248 174.04 
L 129.027248 94.936916 
L 127.34648 94.936916 
z
" clip-path="url(#p79b58d63e1)" style="fill: #d3d3d3; stroke: #d3d3d3; stroke-linejoin: miter"/>
   </g>
   <g id="patch_27">
    <path d="M 129.027248 174.04 
L 130.708016 174.04 
L 130.708016 84.321351 
L 129.027248 84.321351 
z
" clip-path="url(#p79b58d63e1)" style="fill: #d3d3d3; stroke: #d3d3d3; stroke-linejoin: miter"/>
   </g>
   <g id="patch_28">
    <path d="M 130.708016 174.04 
L 132.388784 174.04 
L 132.388784 75.760411 
L 130.708016 75.760411 
z
" clip-path="url(#p79b58d63e1)" style="fill: #d3d3d3; stroke: #d3d3d3; stroke-linejoin: miter"/>
   </g>
   <g id="patch_29">
    <path d="M 132.388784 174.04 
L 134.069553 174.04 
L 134.069553 48.707841 
L 132.388784 48.707841 
z
" clip-path="url(#p79b58d63e1)" style="fill: #d3d3d3; stroke: #d3d3d3; stroke-linejoin: miter"/>
   </g>
   <g id="patch_30">
    <path d="M 134.069553 174.04 
L 135.750321 174.04 
L 135.750321 39.119589 
L 134.069553 39.119589 
z
" clip-path="url(#p79b58d63e1)" style="fill: #d3d3d3; stroke: #d3d3d3; stroke-linejoin: miter"/>
   </g>
   <g id="patch_31">
    <path d="M 135.750321 174.04 
L 137.431089 174.04 
L 137.431089 18.573333 
L 135.750321 18.573333 
z
" clip-path="url(#p79b58d63e1)" style="fill: #d3d3d3; stroke: #d3d3d3; stroke-linejoin: miter"/>
   </g>
   <g id="patch_32">
    <path d="M 137.431089 174.04 
L 139.111857 174.04 
L 139.111857 26.449398 
L 137.431089 26.449398 
z
" clip-path="url(#p79b58d63e1)" style="fill: #d3d3d3; stroke: #d3d3d3; stroke-linejoin: miter"/>
   </g>
   <g id="patch_33">
    <path d="M 139.111857 174.04 
L 140.792626 174.04 
L 140.792626 18.915771 
L 139.111857 18.915771 
z
" clip-path="url(#p79b58d63e1)" style="fill: #d3d3d3; stroke: #d3d3d3; stroke-linejoin: miter"/>
   </g>
   <g id="patch_34">
    <path d="M 140.792626 174.04 
L 142.473394 174.04 
L 142.473394 22.340147 
L 140.792626 22.340147 
z
" clip-path="url(#p79b58d63e1)" style="fill: #d3d3d3; stroke: #d3d3d3; stroke-linejoin: miter"/>
   </g>
   <g id="patch_35">
    <path d="M 142.473394 174.04 
L 144.154162 174.04 
L 144.154162 23.709897 
L 142.473394 23.709897 
z
" clip-path="url(#p79b58d63e1)" style="fill: #d3d3d3; stroke: #d3d3d3; stroke-linejoin: miter"/>
   </g>
   <g id="patch_36">
    <path d="M 144.154162 174.04 
L 145.83493 174.04 
L 145.83493 26.449398 
L 144.154162 26.449398 
z
" clip-path="url(#p79b58d63e1)" style="fill: #d3d3d3; stroke: #d3d3d3; stroke-linejoin: miter"/>
   </g>
   <g id="patch_37">
    <path d="M 145.83493 174.04 
L 147.515699 174.04 
L 147.515699 28.504023 
L 145.83493 28.504023 
z
" clip-path="url(#p79b58d63e1)" style="fill: #d3d3d3; stroke: #d3d3d3; stroke-linejoin: miter"/>
   </g>
   <g id="patch_38">
    <path d="M 147.515699 174.04 
L 149.196467 174.04 
L 149.196467 23.36746 
L 147.515699 23.36746 
z
" clip-path="url(#p79b58d63e1)" style="fill: #d3d3d3; stroke: #d3d3d3; stroke-linejoin: miter"/>
   </g>
   <g id="patch_39">
    <path d="M 149.196467 174.04 
L 150.877235 174.04 
L 150.877235 38.092276 
L 149.196467 38.092276 
z
" clip-path="url(#p79b58d63e1)" style="fill: #d3d3d3; stroke: #d3d3d3; stroke-linejoin: miter"/>
   </g>
   <g id="patch_40">
    <path d="M 150.877235 174.04 
L 152.558003 174.04 
L 152.558003 62.747783 
L 150.877235 62.747783 
z
" clip-path="url(#p79b58d63e1)" style="fill: #d3d3d3; stroke: #d3d3d3; stroke-linejoin: miter"/>
   </g>
   <g id="patch_41">
    <path d="M 152.558003 174.04 
L 154.238772 174.04 
L 154.238772 49.050279 
L 152.558003 49.050279 
z
" clip-path="url(#p79b58d63e1)" style="fill: #d3d3d3; stroke: #d3d3d3; stroke-linejoin: miter"/>
   </g>
   <g id="patch_42">
    <path d="M 154.238772 174.04 
L 155.91954 174.04 
L 155.91954 74.390661 
L 154.238772 74.390661 
z
" clip-path="url(#p79b58d63e1)" style="fill: #d3d3d3; stroke: #d3d3d3; stroke-linejoin: miter"/>
   </g>
   <g id="patch_43">
    <path d="M 155.91954 174.04 
L 157.600308 174.04 
L 157.600308 82.951601 
L 155.91954 82.951601 
z
" clip-path="url(#p79b58d63e1)" style="fill: #d3d3d3; stroke: #d3d3d3; stroke-linejoin: miter"/>
   </g>
   <g id="patch_44">
    <path d="M 157.600308 174.04 
L 159.281076 174.04 
L 159.281076 90.14279 
L 157.600308 90.14279 
z
" clip-path="url(#p79b58d63e1)" style="fill: #d3d3d3; stroke: #d3d3d3; stroke-linejoin: miter"/>
   </g>
   <g id="patch_45">
    <path d="M 159.281076 174.04 
L 160.961845 174.04 
L 160.961845 95.279354 
L 159.281076 95.279354 
z
" clip-path="url(#p79b58d63e1)" style="fill: #d3d3d3; stroke: #d3d3d3; stroke-linejoin: miter"/>
   </g>
   <g id="patch_46">
    <path d="M 160.961845 174.04 
L 162.642613 174.04 
L 162.642613 109.661733 
L 160.961845 109.661733 
z
" clip-path="url(#p79b58d63e1)" style="fill: #d3d3d3; stroke: #d3d3d3; stroke-linejoin: miter"/>
   </g>
   <g id="patch_47">
    <path d="M 162.642613 174.04 
L 164.323381 174.04 
L 164.323381 111.031483 
L 162.642613 111.031483 
z
" clip-path="url(#p79b58d63e1)" style="fill: #d3d3d3; stroke: #d3d3d3; stroke-linejoin: miter"/>
   </g>
   <g id="patch_48">
    <path d="M 164.323381 174.04 
L 166.004149 174.04 
L 166.004149 118.907548 
L 164.323381 118.907548 
z
" clip-path="url(#p79b58d63e1)" style="fill: #d3d3d3; stroke: #d3d3d3; stroke-linejoin: miter"/>
   </g>
   <g id="patch_49">
    <path d="M 166.004149 174.04 
L 167.684918 174.04 
L 167.684918 125.413862 
L 166.004149 125.413862 
z
" clip-path="url(#p79b58d63e1)" style="fill: #d3d3d3; stroke: #d3d3d3; stroke-linejoin: miter"/>
   </g>
   <g id="patch_50">
    <path d="M 167.684918 174.04 
L 169.365686 174.04 
L 169.365686 138.42649 
L 167.684918 138.42649 
z
" clip-path="url(#p79b58d63e1)" style="fill: #d3d3d3; stroke: #d3d3d3; stroke-linejoin: miter"/>
   </g>
   <g id="patch_51">
    <path d="M 169.365686 174.04 
L 171.046454 174.04 
L 171.046454 138.084053 
L 169.365686 138.084053 
z
" clip-path="url(#p79b58d63e1)" style="fill: #d3d3d3; stroke: #d3d3d3; stroke-linejoin: miter"/>
   </g>
   <g id="patch_52">
    <path d="M 171.046454 174.04 
L 172.727222 174.04 
L 172.727222 139.453803 
L 171.046454 139.453803 
z
" clip-path="url(#p79b58d63e1)" style="fill: #d3d3d3; stroke: #d3d3d3; stroke-linejoin: miter"/>
   </g>
   <g id="patch_53">
    <path d="M 172.727222 174.04 
L 174.407991 174.04 
L 174.407991 141.508429 
L 172.727222 141.508429 
z
" clip-path="url(#p79b58d63e1)" style="fill: #d3d3d3; stroke: #d3d3d3; stroke-linejoin: miter"/>
   </g>
   <g id="patch_54">
    <path d="M 174.407991 174.04 
L 176.088759 174.04 
L 176.088759 149.384493 
L 174.407991 149.384493 
z
" clip-path="url(#p79b58d63e1)" style="fill: #d3d3d3; stroke: #d3d3d3; stroke-linejoin: miter"/>
   </g>
   <g id="patch_55">
    <path d="M 176.088759 174.04 
L 177.769527 174.04 
L 177.769527 152.466432 
L 176.088759 152.466432 
z
" clip-path="url(#p79b58d63e1)" style="fill: #d3d3d3; stroke: #d3d3d3; stroke-linejoin: miter"/>
   </g>
   <g id="patch_56">
    <path d="M 177.769527 174.04 
L 179.450295 174.04 
L 179.450295 153.151307 
L 177.769527 153.151307 
z
" clip-path="url(#p79b58d63e1)" style="fill: #d3d3d3; stroke: #d3d3d3; stroke-linejoin: miter"/>
   </g>
   <g id="patch_57">
    <path d="M 179.450295 174.04 
L 181.131064 174.04 
L 181.131064 152.808869 
L 179.450295 152.808869 
z
" clip-path="url(#p79b58d63e1)" style="fill: #d3d3d3; stroke: #d3d3d3; stroke-linejoin: miter"/>
   </g>
   <g id="patch_58">
    <path d="M 181.131064 174.04 
L 182.811832 174.04 
L 182.811832 157.945433 
L 181.131064 157.945433 
z
" clip-path="url(#p79b58d63e1)" style="fill: #d3d3d3; stroke: #d3d3d3; stroke-linejoin: miter"/>
   </g>
   <g id="patch_59">
    <path d="M 182.811832 174.04 
L 184.4926 174.04 
L 184.4926 164.451747 
L 182.811832 164.451747 
z
" clip-path="url(#p79b58d63e1)" style="fill: #d3d3d3; stroke: #d3d3d3; stroke-linejoin: miter"/>
   </g>
   <g id="patch_60">
    <path d="M 184.4926 174.04 
L 186.173368 174.04 
L 186.173368 158.630308 
L 184.4926 158.630308 
z
" clip-path="url(#p79b58d63e1)" style="fill: #d3d3d3; stroke: #d3d3d3; stroke-linejoin: miter"/>
   </g>
   <g id="patch_61">
    <path d="M 186.173368 174.04 
L 187.854136 174.04 
L 187.854136 161.027372 
L 186.173368 161.027372 
z
" clip-path="url(#p79b58d63e1)" style="fill: #d3d3d3; stroke: #d3d3d3; stroke-linejoin: miter"/>
   </g>
   <g id="patch_62">
    <path d="M 187.854136 174.04 
L 189.534905 174.04 
L 189.534905 167.191248 
L 187.854136 167.191248 
z
" clip-path="url(#p79b58d63e1)" style="fill: #d3d3d3; stroke: #d3d3d3; stroke-linejoin: miter"/>
   </g>
   <g id="patch_63">
    <path d="M 189.534905 174.04 
L 191.215673 174.04 
L 191.215673 166.163935 
L 189.534905 166.163935 
z
" clip-path="url(#p79b58d63e1)" style="fill: #d3d3d3; stroke: #d3d3d3; stroke-linejoin: miter"/>
   </g>
   <g id="patch_64">
    <path d="M 191.215673 174.04 
L 192.896441 174.04 
L 192.896441 166.163935 
L 191.215673 166.163935 
z
" clip-path="url(#p79b58d63e1)" style="fill: #d3d3d3; stroke: #d3d3d3; stroke-linejoin: miter"/>
   </g>
   <g id="patch_65">
    <path d="M 192.896441 174.04 
L 194.577209 174.04 
L 194.577209 167.191248 
L 192.896441 167.191248 
z
" clip-path="url(#p79b58d63e1)" style="fill: #d3d3d3; stroke: #d3d3d3; stroke-linejoin: miter"/>
   </g>
   <g id="patch_66">
    <path d="M 194.577209 174.04 
L 196.257978 174.04 
L 196.257978 169.245874 
L 194.577209 169.245874 
z
" clip-path="url(#p79b58d63e1)" style="fill: #d3d3d3; stroke: #d3d3d3; stroke-linejoin: miter"/>
   </g>
   <g id="patch_67">
    <path d="M 196.257978 174.04 
L 197.938746 174.04 
L 197.938746 166.163935 
L 196.257978 166.163935 
z
" clip-path="url(#p79b58d63e1)" style="fill: #d3d3d3; stroke: #d3d3d3; stroke-linejoin: miter"/>
   </g>
   <g id="patch_68">
    <path d="M 197.938746 174.04 
L 199.619514 174.04 
L 199.619514 166.848811 
L 197.938746 166.848811 
z
" clip-path="url(#p79b58d63e1)" style="fill: #d3d3d3; stroke: #d3d3d3; stroke-linejoin: miter"/>
   </g>
   <g id="patch_69">
    <path d="M 199.619514 174.04 
L 201.300282 174.04 
L 201.300282 168.903436 
L 199.619514 168.903436 
z
" clip-path="url(#p79b58d63e1)" style="fill: #d3d3d3; stroke: #d3d3d3; stroke-linejoin: miter"/>
   </g>
   <g id="patch_70">
    <path d="M 201.300282 174.04 
L 202.981051 174.04 
L 202.981051 169.588311 
L 201.300282 169.588311 
z
" clip-path="url(#p79b58d63e1)" style="fill: #d3d3d3; stroke: #d3d3d3; stroke-linejoin: miter"/>
   </g>
   <g id="patch_71">
    <path d="M 202.981051 174.04 
L 204.661819 174.04 
L 204.661819 170.615624 
L 202.981051 170.615624 
z
" clip-path="url(#p79b58d63e1)" style="fill: #d3d3d3; stroke: #d3d3d3; stroke-linejoin: miter"/>
   </g>
   <g id="patch_72">
    <path d="M 204.661819 174.04 
L 206.342587 174.04 
L 206.342587 170.958062 
L 204.661819 170.958062 
z
" clip-path="url(#p79b58d63e1)" style="fill: #d3d3d3; stroke: #d3d3d3; stroke-linejoin: miter"/>
   </g>
   <g id="patch_73">
    <path d="M 206.342587 174.04 
L 208.023355 174.04 
L 208.023355 172.67025 
L 206.342587 172.67025 
z
" clip-path="url(#p79b58d63e1)" style="fill: #d3d3d3; stroke: #d3d3d3; stroke-linejoin: miter"/>
   </g>
   <g id="patch_74">
    <path d="M 208.023355 174.04 
L 209.704124 174.04 
L 209.704124 170.615624 
L 208.023355 170.615624 
z
" clip-path="url(#p79b58d63e1)" style="fill: #d3d3d3; stroke: #d3d3d3; stroke-linejoin: miter"/>
   </g>
   <g id="patch_75">
    <path d="M 209.704124 174.04 
L 211.384892 174.04 
L 211.384892 170.958062 
L 209.704124 170.958062 
z
" clip-path="url(#p79b58d63e1)" style="fill: #d3d3d3; stroke: #d3d3d3; stroke-linejoin: miter"/>
   </g>
   <g id="patch_76">
    <path d="M 211.384892 174.04 
L 213.06566 174.04 
L 213.06566 171.300499 
L 211.384892 171.300499 
z
" clip-path="url(#p79b58d63e1)" style="fill: #d3d3d3; stroke: #d3d3d3; stroke-linejoin: miter"/>
   </g>
   <g id="patch_77">
    <path d="M 213.06566 174.04 
L 214.746428 174.04 
L 214.746428 171.300499 
L 213.06566 171.300499 
z
" clip-path="url(#p79b58d63e1)" style="fill: #d3d3d3; stroke: #d3d3d3; stroke-linejoin: miter"/>
   </g>
   <g id="patch_78">
    <path d="M 214.746428 174.04 
L 216.427197 174.04 
L 216.427197 171.985374 
L 214.746428 171.985374 
z
" clip-path="url(#p79b58d63e1)" style="fill: #d3d3d3; stroke: #d3d3d3; stroke-linejoin: miter"/>
   </g>
   <g id="patch_79">
    <path d="M 216.427197 174.04 
L 218.107965 174.04 
L 218.107965 172.327812 
L 216.427197 172.327812 
z
" clip-path="url(#p79b58d63e1)" style="fill: #d3d3d3; stroke: #d3d3d3; stroke-linejoin: miter"/>
   </g>
   <g id="patch_80">
    <path d="M 218.107965 174.04 
L 219.788733 174.04 
L 219.788733 173.012687 
L 218.107965 173.012687 
z
" clip-path="url(#p79b58d63e1)" style="fill: #d3d3d3; stroke: #d3d3d3; stroke-linejoin: miter"/>
   </g>
   <g id="patch_81">
    <path d="M 219.788733 174.04 
L 221.469501 174.04 
L 221.469501 172.67025 
L 219.788733 172.67025 
z
" clip-path="url(#p79b58d63e1)" style="fill: #d3d3d3; stroke: #d3d3d3; stroke-linejoin: miter"/>
   </g>
   <g id="patch_82">
    <path d="M 221.469501 174.04 
L 223.15027 174.04 
L 223.15027 173.355125 
L 221.469501 173.355125 
z
" clip-path="url(#p79b58d63e1)" style="fill: #d3d3d3; stroke: #d3d3d3; stroke-linejoin: miter"/>
   </g>
   <g id="patch_83">
    <path d="M 223.15027 174.04 
L 224.831038 174.04 
L 224.831038 173.012687 
L 223.15027 173.012687 
z
" clip-path="url(#p79b58d63e1)" style="fill: #d3d3d3; stroke: #d3d3d3; stroke-linejoin: miter"/>
   </g>
   <g id="patch_84">
    <path d="M 224.831038 174.04 
L 226.511806 174.04 
L 226.511806 172.67025 
L 224.831038 172.67025 
z
" clip-path="url(#p79b58d63e1)" style="fill: #d3d3d3; stroke: #d3d3d3; stroke-linejoin: miter"/>
   </g>
   <g id="patch_85">
    <path d="M 226.511806 174.04 
L 228.192574 174.04 
L 228.192574 173.697562 
L 226.511806 173.697562 
z
" clip-path="url(#p79b58d63e1)" style="fill: #d3d3d3; stroke: #d3d3d3; stroke-linejoin: miter"/>
   </g>
   <g id="patch_86">
    <path d="M 228.192574 174.04 
L 229.873343 174.04 
L 229.873343 173.697562 
L 228.192574 173.697562 
z
" clip-path="url(#p79b58d63e1)" style="fill: #d3d3d3; stroke: #d3d3d3; stroke-linejoin: miter"/>
   </g>
   <g id="patch_87">
    <path d="M 229.873343 174.04 
L 231.554111 174.04 
L 231.554111 173.012687 
L 229.873343 173.012687 
z
" clip-path="url(#p79b58d63e1)" style="fill: #d3d3d3; stroke: #d3d3d3; stroke-linejoin: miter"/>
   </g>
   <g id="patch_88">
    <path d="M 231.554111 174.04 
L 233.234879 174.04 
L 233.234879 173.697562 
L 231.554111 173.697562 
z
" clip-path="url(#p79b58d63e1)" style="fill: #d3d3d3; stroke: #d3d3d3; stroke-linejoin: miter"/>
   </g>
   <g id="patch_89">
    <path d="M 233.234879 174.04 
L 234.915647 174.04 
L 234.915647 173.697562 
L 233.234879 173.697562 
z
" clip-path="url(#p79b58d63e1)" style="fill: #d3d3d3; stroke: #d3d3d3; stroke-linejoin: miter"/>
   </g>
   <g id="patch_90">
    <path d="M 234.915647 174.04 
L 236.596416 174.04 
L 236.596416 173.697562 
L 234.915647 173.697562 
z
" clip-path="url(#p79b58d63e1)" style="fill: #d3d3d3; stroke: #d3d3d3; stroke-linejoin: miter"/>
   </g>
   <g id="patch_91">
    <path d="M 236.596416 174.04 
L 238.277184 174.04 
L 238.277184 173.697562 
L 236.596416 173.697562 
z
" clip-path="url(#p79b58d63e1)" style="fill: #d3d3d3; stroke: #d3d3d3; stroke-linejoin: miter"/>
   </g>
   <g id="patch_92">
    <path d="M 238.277184 174.04 
L 239.957952 174.04 
L 239.957952 174.04 
L 238.277184 174.04 
z
" clip-path="url(#p79b58d63e1)" style="fill: #d3d3d3; stroke: #d3d3d3; stroke-linejoin: miter"/>
   </g>
   <g id="patch_93">
    <path d="M 239.957952 174.04 
L 241.63872 174.04 
L 241.63872 173.355125 
L 239.957952 173.355125 
z
" clip-path="url(#p79b58d63e1)" style="fill: #d3d3d3; stroke: #d3d3d3; stroke-linejoin: miter"/>
   </g>
   <g id="patch_94">
    <path d="M 241.63872 174.04 
L 243.319488 174.04 
L 243.319488 173.697562 
L 241.63872 173.697562 
z
" clip-path="url(#p79b58d63e1)" style="fill: #d3d3d3; stroke: #d3d3d3; stroke-linejoin: miter"/>
   </g>
   <g id="patch_95">
    <path d="M 243.319488 174.04 
L 245.000257 174.04 
L 245.000257 173.012687 
L 243.319488 173.012687 
z
" clip-path="url(#p79b58d63e1)" style="fill: #d3d3d3; stroke: #d3d3d3; stroke-linejoin: miter"/>
   </g>
   <g id="patch_96">
    <path d="M 245.000257 174.04 
L 246.681025 174.04 
L 246.681025 174.04 
L 245.000257 174.04 
z
" clip-path="url(#p79b58d63e1)" style="fill: #d3d3d3; stroke: #d3d3d3; stroke-linejoin: miter"/>
   </g>
   <g id="patch_97">
    <path d="M 246.681025 174.04 
L 248.361793 174.04 
L 248.361793 174.04 
L 246.681025 174.04 
z
" clip-path="url(#p79b58d63e1)" style="fill: #d3d3d3; stroke: #d3d3d3; stroke-linejoin: miter"/>
   </g>
   <g id="patch_98">
    <path d="M 248.361793 174.04 
L 250.042561 174.04 
L 250.042561 173.355125 
L 248.361793 173.355125 
z
" clip-path="url(#p79b58d63e1)" style="fill: #d3d3d3; stroke: #d3d3d3; stroke-linejoin: miter"/>
   </g>
   <g id="patch_99">
    <path d="M 250.042561 174.04 
L 251.72333 174.04 
L 251.72333 173.697562 
L 250.042561 173.697562 
z
" clip-path="url(#p79b58d63e1)" style="fill: #d3d3d3; stroke: #d3d3d3; stroke-linejoin: miter"/>
   </g>
   <g id="patch_100">
    <path d="M 251.72333 174.04 
L 253.404098 174.04 
L 253.404098 174.04 
L 251.72333 174.04 
z
" clip-path="url(#p79b58d63e1)" style="fill: #d3d3d3; stroke: #d3d3d3; stroke-linejoin: miter"/>
   </g>
   <g id="patch_101">
    <path d="M 253.404098 174.04 
L 255.084866 174.04 
L 255.084866 174.04 
L 253.404098 174.04 
z
" clip-path="url(#p79b58d63e1)" style="fill: #d3d3d3; stroke: #d3d3d3; stroke-linejoin: miter"/>
   </g>
   <g id="patch_102">
    <path d="M 255.084866 174.04 
L 256.765634 174.04 
L 256.765634 173.697562 
L 255.084866 173.697562 
z
" clip-path="url(#p79b58d63e1)" style="fill: #d3d3d3; stroke: #d3d3d3; stroke-linejoin: miter"/>
   </g>
   <g id="matplotlib.axis_1">
    <g id="xtick_1">
     <g id="line2d_1">
      <defs>
       <path id="m2a532b2132" d="M 0 0 
L 0 3.5 
" style="stroke: #000000; stroke-width: 0.8"/>
      </defs>
      <g>
       <use xlink:href="#m2a532b2132" x="44.66" y="174.04" style="stroke: #000000; stroke-width: 0.8"/>
      </g>
     </g>
     <g id="text_1">
      <!-- 0.0 -->
      <g transform="translate(36.708438 188.638438) scale(0.1 -0.1)">
       <defs>
        <path id="DejaVuSans-30" d="M 2034 4250 
Q 1547 4250 1301 3770 
Q 1056 3291 1056 2328 
Q 1056 1369 1301 889 
Q 1547 409 2034 409 
Q 2525 409 2770 889 
Q 3016 1369 3016 2328 
Q 3016 3291 2770 3770 
Q 2525 4250 2034 4250 
z
M 2034 4750 
Q 2819 4750 3233 4129 
Q 3647 3509 3647 2328 
Q 3647 1150 3233 529 
Q 2819 -91 2034 -91 
Q 1250 -91 836 529 
Q 422 1150 422 2328 
Q 422 3509 836 4129 
Q 1250 4750 2034 4750 
z
" transform="scale(0.015625)"/>
        <path id="DejaVuSans-2e" d="M 684 794 
L 1344 794 
L 1344 0 
L 684 0 
L 684 794 
z
" transform="scale(0.015625)"/>
       </defs>
       <use xlink:href="#DejaVuSans-30"/>
       <use xlink:href="#DejaVuSans-2e" transform="translate(63.623047 0)"/>
       <use xlink:href="#DejaVuSans-30" transform="translate(95.410156 0)"/>
      </g>
     </g>
    </g>
    <g id="xtick_2">
     <g id="line2d_2">
      <g>
       <use xlink:href="#m2a532b2132" x="81.711931" y="174.04" style="stroke: #000000; stroke-width: 0.8"/>
      </g>
     </g>
     <g id="text_2">
      <!-- 0.1 -->
      <g transform="translate(73.760369 188.638438) scale(0.1 -0.1)">
       <defs>
        <path id="DejaVuSans-31" d="M 794 531 
L 1825 531 
L 1825 4091 
L 703 3866 
L 703 4441 
L 1819 4666 
L 2450 4666 
L 2450 531 
L 3481 531 
L 3481 0 
L 794 0 
L 794 531 
z
" transform="scale(0.015625)"/>
       </defs>
       <use xlink:href="#DejaVuSans-30"/>
       <use xlink:href="#DejaVuSans-2e" transform="translate(63.623047 0)"/>
       <use xlink:href="#DejaVuSans-31" transform="translate(95.410156 0)"/>
      </g>
     </g>
    </g>
    <g id="xtick_3">
     <g id="line2d_3">
      <g>
       <use xlink:href="#m2a532b2132" x="118.763863" y="174.04" style="stroke: #000000; stroke-width: 0.8"/>
      </g>
     </g>
     <g id="text_3">
      <!-- 0.2 -->
      <g transform="translate(110.8123 188.638438) scale(0.1 -0.1)">
       <defs>
        <path id="DejaVuSans-32" d="M 1228 531 
L 3431 531 
L 3431 0 
L 469 0 
L 469 531 
Q 828 903 1448 1529 
Q 2069 2156 2228 2338 
Q 2531 2678 2651 2914 
Q 2772 3150 2772 3378 
Q 2772 3750 2511 3984 
Q 2250 4219 1831 4219 
Q 1534 4219 1204 4116 
Q 875 4013 500 3803 
L 500 4441 
Q 881 4594 1212 4672 
Q 1544 4750 1819 4750 
Q 2544 4750 2975 4387 
Q 3406 4025 3406 3419 
Q 3406 3131 3298 2873 
Q 3191 2616 2906 2266 
Q 2828 2175 2409 1742 
Q 1991 1309 1228 531 
z
" transform="scale(0.015625)"/>
       </defs>
       <use xlink:href="#DejaVuSans-30"/>
       <use xlink:href="#DejaVuSans-2e" transform="translate(63.623047 0)"/>
       <use xlink:href="#DejaVuSans-32" transform="translate(95.410156 0)"/>
      </g>
     </g>
    </g>
    <g id="xtick_4">
     <g id="line2d_4">
      <g>
       <use xlink:href="#m2a532b2132" x="155.815794" y="174.04" style="stroke: #000000; stroke-width: 0.8"/>
      </g>
     </g>
     <g id="text_4">
      <!-- 0.3 -->
      <g transform="translate(147.864232 188.638438) scale(0.1 -0.1)">
       <defs>
        <path id="DejaVuSans-33" d="M 2597 2516 
Q 3050 2419 3304 2112 
Q 3559 1806 3559 1356 
Q 3559 666 3084 287 
Q 2609 -91 1734 -91 
Q 1441 -91 1130 -33 
Q 819 25 488 141 
L 488 750 
Q 750 597 1062 519 
Q 1375 441 1716 441 
Q 2309 441 2620 675 
Q 2931 909 2931 1356 
Q 2931 1769 2642 2001 
Q 2353 2234 1838 2234 
L 1294 2234 
L 1294 2753 
L 1863 2753 
Q 2328 2753 2575 2939 
Q 2822 3125 2822 3475 
Q 2822 3834 2567 4026 
Q 2313 4219 1838 4219 
Q 1578 4219 1281 4162 
Q 984 4106 628 3988 
L 628 4550 
Q 988 4650 1302 4700 
Q 1616 4750 1894 4750 
Q 2613 4750 3031 4423 
Q 3450 4097 3450 3541 
Q 3450 3153 3228 2886 
Q 3006 2619 2597 2516 
z
" transform="scale(0.015625)"/>
       </defs>
       <use xlink:href="#DejaVuSans-30"/>
       <use xlink:href="#DejaVuSans-2e" transform="translate(63.623047 0)"/>
       <use xlink:href="#DejaVuSans-33" transform="translate(95.410156 0)"/>
      </g>
     </g>
    </g>
    <g id="xtick_5">
     <g id="line2d_5">
      <g>
       <use xlink:href="#m2a532b2132" x="192.867726" y="174.04" style="stroke: #000000; stroke-width: 0.8"/>
      </g>
     </g>
     <g id="text_5">
      <!-- 0.4 -->
      <g transform="translate(184.916163 188.638438) scale(0.1 -0.1)">
       <defs>
        <path id="DejaVuSans-34" d="M 2419 4116 
L 825 1625 
L 2419 1625 
L 2419 4116 
z
M 2253 4666 
L 3047 4666 
L 3047 1625 
L 3713 1625 
L 3713 1100 
L 3047 1100 
L 3047 0 
L 2419 0 
L 2419 1100 
L 313 1100 
L 313 1709 
L 2253 4666 
z
" transform="scale(0.015625)"/>
       </defs>
       <use xlink:href="#DejaVuSans-30"/>
       <use xlink:href="#DejaVuSans-2e" transform="translate(63.623047 0)"/>
       <use xlink:href="#DejaVuSans-34" transform="translate(95.410156 0)"/>
      </g>
     </g>
    </g>
    <g id="xtick_6">
     <g id="line2d_6">
      <g>
       <use xlink:href="#m2a532b2132" x="229.919657" y="174.04" style="stroke: #000000; stroke-width: 0.8"/>
      </g>
     </g>
     <g id="text_6">
      <!-- 0.5 -->
      <g transform="translate(221.968095 188.638438) scale(0.1 -0.1)">
       <defs>
        <path id="DejaVuSans-35" d="M 691 4666 
L 3169 4666 
L 3169 4134 
L 1269 4134 
L 1269 2991 
Q 1406 3038 1543 3061 
Q 1681 3084 1819 3084 
Q 2600 3084 3056 2656 
Q 3513 2228 3513 1497 
Q 3513 744 3044 326 
Q 2575 -91 1722 -91 
Q 1428 -91 1123 -41 
Q 819 9 494 109 
L 494 744 
Q 775 591 1075 516 
Q 1375 441 1709 441 
Q 2250 441 2565 725 
Q 2881 1009 2881 1497 
Q 2881 1984 2565 2268 
Q 2250 2553 1709 2553 
Q 1456 2553 1204 2497 
Q 953 2441 691 2322 
L 691 4666 
z
" transform="scale(0.015625)"/>
       </defs>
       <use xlink:href="#DejaVuSans-30"/>
       <use xlink:href="#DejaVuSans-2e" transform="translate(63.623047 0)"/>
       <use xlink:href="#DejaVuSans-35" transform="translate(95.410156 0)"/>
      </g>
     </g>
    </g>
    <g id="xtick_7">
     <g id="line2d_7">
      <g>
       <use xlink:href="#m2a532b2132" x="266.971589" y="174.04" style="stroke: #000000; stroke-width: 0.8"/>
      </g>
     </g>
     <g id="text_7">
      <!-- 0.6 -->
      <g transform="translate(259.020026 188.638438) scale(0.1 -0.1)">
       <defs>
        <path id="DejaVuSans-36" d="M 2113 2584 
Q 1688 2584 1439 2293 
Q 1191 2003 1191 1497 
Q 1191 994 1439 701 
Q 1688 409 2113 409 
Q 2538 409 2786 701 
Q 3034 994 3034 1497 
Q 3034 2003 2786 2293 
Q 2538 2584 2113 2584 
z
M 3366 4563 
L 3366 3988 
Q 3128 4100 2886 4159 
Q 2644 4219 2406 4219 
Q 1781 4219 1451 3797 
Q 1122 3375 1075 2522 
Q 1259 2794 1537 2939 
Q 1816 3084 2150 3084 
Q 2853 3084 3261 2657 
Q 3669 2231 3669 1497 
Q 3669 778 3244 343 
Q 2819 -91 2113 -91 
Q 1303 -91 875 529 
Q 447 1150 447 2328 
Q 447 3434 972 4092 
Q 1497 4750 2381 4750 
Q 2619 4750 2861 4703 
Q 3103 4656 3366 4563 
z
" transform="scale(0.015625)"/>
       </defs>
       <use xlink:href="#DejaVuSans-30"/>
       <use xlink:href="#DejaVuSans-2e" transform="translate(63.623047 0)"/>
       <use xlink:href="#DejaVuSans-36" transform="translate(95.410156 0)"/>
      </g>
     </g>
    </g>
    <g id="xtick_8">
     <g id="line2d_8">
      <g>
       <use xlink:href="#m2a532b2132" x="304.02352" y="174.04" style="stroke: #000000; stroke-width: 0.8"/>
      </g>
     </g>
     <g id="text_8">
      <!-- 0.7 -->
      <g transform="translate(296.071958 188.638438) scale(0.1 -0.1)">
       <defs>
        <path id="DejaVuSans-37" d="M 525 4666 
L 3525 4666 
L 3525 4397 
L 1831 0 
L 1172 0 
L 2766 4134 
L 525 4134 
L 525 4666 
z
" transform="scale(0.015625)"/>
       </defs>
       <use xlink:href="#DejaVuSans-30"/>
       <use xlink:href="#DejaVuSans-2e" transform="translate(63.623047 0)"/>
       <use xlink:href="#DejaVuSans-37" transform="translate(95.410156 0)"/>
      </g>
     </g>
    </g>
    <g id="xtick_9">
     <g id="line2d_9">
      <g>
       <use xlink:href="#m2a532b2132" x="341.075452" y="174.04" style="stroke: #000000; stroke-width: 0.8"/>
      </g>
     </g>
     <g id="text_9">
      <!-- 0.8 -->
      <g transform="translate(333.123889 188.638438) scale(0.1 -0.1)">
       <defs>
        <path id="DejaVuSans-38" d="M 2034 2216 
Q 1584 2216 1326 1975 
Q 1069 1734 1069 1313 
Q 1069 891 1326 650 
Q 1584 409 2034 409 
Q 2484 409 2743 651 
Q 3003 894 3003 1313 
Q 3003 1734 2745 1975 
Q 2488 2216 2034 2216 
z
M 1403 2484 
Q 997 2584 770 2862 
Q 544 3141 544 3541 
Q 544 4100 942 4425 
Q 1341 4750 2034 4750 
Q 2731 4750 3128 4425 
Q 3525 4100 3525 3541 
Q 3525 3141 3298 2862 
Q 3072 2584 2669 2484 
Q 3125 2378 3379 2068 
Q 3634 1759 3634 1313 
Q 3634 634 3220 271 
Q 2806 -91 2034 -91 
Q 1263 -91 848 271 
Q 434 634 434 1313 
Q 434 1759 690 2068 
Q 947 2378 1403 2484 
z
M 1172 3481 
Q 1172 3119 1398 2916 
Q 1625 2713 2034 2713 
Q 2441 2713 2670 2916 
Q 2900 3119 2900 3481 
Q 2900 3844 2670 4047 
Q 2441 4250 2034 4250 
Q 1625 4250 1398 4047 
Q 1172 3844 1172 3481 
z
" transform="scale(0.015625)"/>
       </defs>
       <use xlink:href="#DejaVuSans-30"/>
       <use xlink:href="#DejaVuSans-2e" transform="translate(63.623047 0)"/>
       <use xlink:href="#DejaVuSans-38" transform="translate(95.410156 0)"/>
      </g>
     </g>
    </g>
    <g id="text_10">
     <!-- TM-score -->
     <g transform="translate(170.263038 202.316563) scale(0.1 -0.1)">
      <defs>
       <path id="DejaVuSans-54" d="M -19 4666 
L 3928 4666 
L 3928 4134 
L 2272 4134 
L 2272 0 
L 1638 0 
L 1638 4134 
L -19 4134 
L -19 4666 
z
" transform="scale(0.015625)"/>
       <path id="DejaVuSans-4d" d="M 628 4666 
L 1569 4666 
L 2759 1491 
L 3956 4666 
L 4897 4666 
L 4897 0 
L 4281 0 
L 4281 4097 
L 3078 897 
L 2444 897 
L 1241 4097 
L 1241 0 
L 628 0 
L 628 4666 
z
" transform="scale(0.015625)"/>
       <path id="DejaVuSans-2d" d="M 313 2009 
L 1997 2009 
L 1997 1497 
L 313 1497 
L 313 2009 
z
" transform="scale(0.015625)"/>
       <path id="DejaVuSans-73" d="M 2834 3397 
L 2834 2853 
Q 2591 2978 2328 3040 
Q 2066 3103 1784 3103 
Q 1356 3103 1142 2972 
Q 928 2841 928 2578 
Q 928 2378 1081 2264 
Q 1234 2150 1697 2047 
L 1894 2003 
Q 2506 1872 2764 1633 
Q 3022 1394 3022 966 
Q 3022 478 2636 193 
Q 2250 -91 1575 -91 
Q 1294 -91 989 -36 
Q 684 19 347 128 
L 347 722 
Q 666 556 975 473 
Q 1284 391 1588 391 
Q 1994 391 2212 530 
Q 2431 669 2431 922 
Q 2431 1156 2273 1281 
Q 2116 1406 1581 1522 
L 1381 1569 
Q 847 1681 609 1914 
Q 372 2147 372 2553 
Q 372 3047 722 3315 
Q 1072 3584 1716 3584 
Q 2034 3584 2315 3537 
Q 2597 3491 2834 3397 
z
" transform="scale(0.015625)"/>
       <path id="DejaVuSans-63" d="M 3122 3366 
L 3122 2828 
Q 2878 2963 2633 3030 
Q 2388 3097 2138 3097 
Q 1578 3097 1268 2742 
Q 959 2388 959 1747 
Q 959 1106 1268 751 
Q 1578 397 2138 397 
Q 2388 397 2633 464 
Q 2878 531 3122 666 
L 3122 134 
Q 2881 22 2623 -34 
Q 2366 -91 2075 -91 
Q 1284 -91 818 406 
Q 353 903 353 1747 
Q 353 2603 823 3093 
Q 1294 3584 2113 3584 
Q 2378 3584 2631 3529 
Q 2884 3475 3122 3366 
z
" transform="scale(0.015625)"/>
       <path id="DejaVuSans-6f" d="M 1959 3097 
Q 1497 3097 1228 2736 
Q 959 2375 959 1747 
Q 959 1119 1226 758 
Q 1494 397 1959 397 
Q 2419 397 2687 759 
Q 2956 1122 2956 1747 
Q 2956 2369 2687 2733 
Q 2419 3097 1959 3097 
z
M 1959 3584 
Q 2709 3584 3137 3096 
Q 3566 2609 3566 1747 
Q 3566 888 3137 398 
Q 2709 -91 1959 -91 
Q 1206 -91 779 398 
Q 353 888 353 1747 
Q 353 2609 779 3096 
Q 1206 3584 1959 3584 
z
" transform="scale(0.015625)"/>
       <path id="DejaVuSans-72" d="M 2631 2963 
Q 2534 3019 2420 3045 
Q 2306 3072 2169 3072 
Q 1681 3072 1420 2755 
Q 1159 2438 1159 1844 
L 1159 0 
L 581 0 
L 581 3500 
L 1159 3500 
L 1159 2956 
Q 1341 3275 1631 3429 
Q 1922 3584 2338 3584 
Q 2397 3584 2469 3576 
Q 2541 3569 2628 3553 
L 2631 2963 
z
" transform="scale(0.015625)"/>
       <path id="DejaVuSans-65" d="M 3597 1894 
L 3597 1613 
L 953 1613 
Q 991 1019 1311 708 
Q 1631 397 2203 397 
Q 2534 397 2845 478 
Q 3156 559 3463 722 
L 3463 178 
Q 3153 47 2828 -22 
Q 2503 -91 2169 -91 
Q 1331 -91 842 396 
Q 353 884 353 1716 
Q 353 2575 817 3079 
Q 1281 3584 2069 3584 
Q 2775 3584 3186 3129 
Q 3597 2675 3597 1894 
z
M 3022 2063 
Q 3016 2534 2758 2815 
Q 2500 3097 2075 3097 
Q 1594 3097 1305 2825 
Q 1016 2553 972 2059 
L 3022 2063 
z
" transform="scale(0.015625)"/>
      </defs>
      <use xlink:href="#DejaVuSans-54"/>
      <use xlink:href="#DejaVuSans-4d" transform="translate(61.083984 0)"/>
      <use xlink:href="#DejaVuSans-2d" transform="translate(147.363281 0)"/>
      <use xlink:href="#DejaVuSans-73" transform="translate(183.447266 0)"/>
      <use xlink:href="#DejaVuSans-63" transform="translate(235.546875 0)"/>
      <use xlink:href="#DejaVuSans-6f" transform="translate(290.527344 0)"/>
      <use xlink:href="#DejaVuSans-72" transform="translate(351.708984 0)"/>
      <use xlink:href="#DejaVuSans-65" transform="translate(390.572266 0)"/>
     </g>
    </g>
   </g>
   <g id="matplotlib.axis_2">
    <g id="ytick_1">
     <g id="line2d_10">
      <defs>
       <path id="m759aa89c66" d="M 0 0 
L -3.5 0 
" style="stroke: #000000; stroke-width: 0.8"/>
      </defs>
      <g>
       <use xlink:href="#m759aa89c66" x="44.66" y="174.04" style="stroke: #000000; stroke-width: 0.8"/>
      </g>
     </g>
     <g id="text_11">
      <!-- 0 -->
      <g transform="translate(31.2975 177.839219) scale(0.1 -0.1)">
       <use xlink:href="#DejaVuSans-30"/>
      </g>
     </g>
    </g>
    <g id="ytick_2">
     <g id="line2d_11">
      <g>
       <use xlink:href="#m759aa89c66" x="44.66" y="142.972349" style="stroke: #000000; stroke-width: 0.8"/>
      </g>
     </g>
     <g id="text_12">
      <!-- 2 -->
      <g transform="translate(31.2975 146.771568) scale(0.1 -0.1)">
       <use xlink:href="#DejaVuSans-32"/>
      </g>
     </g>
    </g>
    <g id="ytick_3">
     <g id="line2d_12">
      <g>
       <use xlink:href="#m759aa89c66" x="44.66" y="111.904699" style="stroke: #000000; stroke-width: 0.8"/>
      </g>
     </g>
     <g id="text_13">
      <!-- 4 -->
      <g transform="translate(31.2975 115.703918) scale(0.1 -0.1)">
       <use xlink:href="#DejaVuSans-34"/>
      </g>
     </g>
    </g>
    <g id="ytick_4">
     <g id="line2d_13">
      <g>
       <use xlink:href="#m759aa89c66" x="44.66" y="80.837048" style="stroke: #000000; stroke-width: 0.8"/>
      </g>
     </g>
     <g id="text_14">
      <!-- 6 -->
      <g transform="translate(31.2975 84.636267) scale(0.1 -0.1)">
       <use xlink:href="#DejaVuSans-36"/>
      </g>
     </g>
    </g>
    <g id="ytick_5">
     <g id="line2d_14">
      <g>
       <use xlink:href="#m759aa89c66" x="44.66" y="49.769398" style="stroke: #000000; stroke-width: 0.8"/>
      </g>
     </g>
     <g id="text_15">
      <!-- 8 -->
      <g transform="translate(31.2975 53.568617) scale(0.1 -0.1)">
       <use xlink:href="#DejaVuSans-38"/>
      </g>
     </g>
    </g>
    <g id="ytick_6">
     <g id="line2d_15">
      <g>
       <use xlink:href="#m759aa89c66" x="44.66" y="18.701747" style="stroke: #000000; stroke-width: 0.8"/>
      </g>
     </g>
     <g id="text_16">
      <!-- 10 -->
      <g transform="translate(24.935 22.500966) scale(0.1 -0.1)">
       <use xlink:href="#DejaVuSans-31"/>
       <use xlink:href="#DejaVuSans-30" transform="translate(63.623047 0)"/>
      </g>
     </g>
    </g>
    <g id="text_17">
     <!-- PDF -->
     <g transform="translate(18.855313 102.160625) rotate(-90) scale(0.1 -0.1)">
      <defs>
       <path id="DejaVuSans-50" d="M 1259 4147 
L 1259 2394 
L 2053 2394 
Q 2494 2394 2734 2622 
Q 2975 2850 2975 3272 
Q 2975 3691 2734 3919 
Q 2494 4147 2053 4147 
L 1259 4147 
z
M 628 4666 
L 2053 4666 
Q 2838 4666 3239 4311 
Q 3641 3956 3641 3272 
Q 3641 2581 3239 2228 
Q 2838 1875 2053 1875 
L 1259 1875 
L 1259 0 
L 628 0 
L 628 4666 
z
" transform="scale(0.015625)"/>
       <path id="DejaVuSans-44" d="M 1259 4147 
L 1259 519 
L 2022 519 
Q 2988 519 3436 956 
Q 3884 1394 3884 2338 
Q 3884 3275 3436 3711 
Q 2988 4147 2022 4147 
L 1259 4147 
z
M 628 4666 
L 1925 4666 
Q 3281 4666 3915 4102 
Q 4550 3538 4550 2338 
Q 4550 1131 3912 565 
Q 3275 0 1925 0 
L 628 0 
L 628 4666 
z
" transform="scale(0.015625)"/>
       <path id="DejaVuSans-46" d="M 628 4666 
L 3309 4666 
L 3309 4134 
L 1259 4134 
L 1259 2759 
L 3109 2759 
L 3109 2228 
L 1259 2228 
L 1259 0 
L 628 0 
L 628 4666 
z
" transform="scale(0.015625)"/>
      </defs>
      <use xlink:href="#DejaVuSans-50"/>
      <use xlink:href="#DejaVuSans-44" transform="translate(60.302734 0)"/>
      <use xlink:href="#DejaVuSans-46" transform="translate(137.304688 0)"/>
     </g>
    </g>
   </g>
   <g id="line2d_16">
    <path d="M 44.66 153.693733 
L 53.858077 152.842824 
L 63.056154 152.22045 
L 72.254231 151.826713 
L 81.452308 151.654364 
L 90.947098 151.694598 
L 101.035311 151.958351 
L 112.013661 152.472098 
L 124.17886 153.271378 
L 138.124332 154.417685 
L 155.630349 156.0911 
L 187.675263 159.429957 
L 217.643192 162.454846 
L 239.896604 164.474769 
L 260.666455 166.137267 
L 281.436307 167.574917 
L 302.799583 168.827299 
L 325.349707 169.92142 
L 341.075452 170.56089 
L 341.075452 170.56089 
" clip-path="url(#p79b58d63e1)" style="fill: none; stroke-dasharray: 3.7,1.6; stroke-dashoffset: 0; stroke: #000000"/>
   </g>
   <g id="line2d_17">
    <path d="M 44.66 174.04 
L 97.771477 173.938491 
L 100.145175 173.7221 
L 101.925448 173.361606 
L 103.409008 172.836741 
L 104.595857 172.203532 
L 105.782706 171.31917 
L 106.969554 170.120299 
L 108.156403 168.540321 
L 109.343252 166.51311 
L 110.5301 163.977354 
L 111.716949 160.881177 
L 112.903798 157.186609 
L 114.387359 151.69816 
L 115.870919 145.251614 
L 117.651192 136.342465 
L 119.728178 124.608198 
L 122.695299 106.32755 
L 126.552557 82.678578 
L 128.629542 71.304398 
L 130.409815 62.840521 
L 131.893376 56.879638 
L 133.080225 52.895149 
L 134.267074 49.639474 
L 135.453922 47.124897 
L 136.344059 45.724346 
L 137.234195 44.733582 
L 138.124332 44.142886 
L 138.717756 43.965044 
L 139.31118 43.954707 
L 139.904605 44.1068 
L 140.794741 44.627318 
L 141.684878 45.480633 
L 142.575014 46.645077 
L 143.761863 48.642195 
L 144.948711 51.096099 
L 146.432272 54.719559 
L 148.212545 59.739041 
L 150.28953 66.292597 
L 153.256652 76.464201 
L 161.564593 105.423682 
L 164.531714 114.791963 
L 167.202124 122.515527 
L 169.575821 128.773166 
L 171.949518 134.44945 
L 174.323216 139.554908 
L 176.696913 144.11334 
L 179.07061 148.157354 
L 181.444308 151.724844 
L 183.818005 154.856303 
L 186.191702 157.592828 
L 188.5654 159.974697 
L 190.939097 162.040396 
L 193.312794 163.826005 
L 195.983204 165.541389 
L 198.653613 166.987382 
L 201.620735 168.324551 
L 204.587856 169.422396 
L 207.85169 170.400751 
L 211.412236 171.244691 
L 215.566207 171.99627 
L 220.313601 172.62123 
L 225.951132 173.129326 
L 232.775512 173.515387 
L 241.973589 173.797158 
L 255.622349 173.967179 
L 282.919868 174.034937 
L 341.075452 174.039997 
L 341.075452 174.039997 
" clip-path="url(#p79b58d63e1)" style="fill: none; stroke: #000000; stroke-linecap: square"/>
   </g>
   <g id="patch_103">
    <path d="M 44.66 174.04 
L 44.66 10.8 
" style="fill: none; stroke: #000000; stroke-width: 0.8; stroke-linejoin: miter; stroke-linecap: square"/>
   </g>
   <g id="patch_104">
    <path d="M 341.075452 174.04 
L 341.075452 10.8 
" style="fill: none; stroke: #000000; stroke-width: 0.8; stroke-linejoin: miter; stroke-linecap: square"/>
   </g>
   <g id="patch_105">
    <path d="M 44.66 174.04 
L 341.075452 174.04 
" style="fill: none; stroke: #000000; stroke-width: 0.8; stroke-linejoin: miter; stroke-linecap: square"/>
   </g>
   <g id="patch_106">
    <path d="M 44.66 10.8 
L 341.075452 10.8 
" style="fill: none; stroke: #000000; stroke-width: 0.8; stroke-linejoin: miter; stroke-linecap: square"/>
   </g>
   <g id="legend_1">
    <g id="patch_107">
     <path d="M 252.341077 62.834375 
L 334.075452 62.834375 
Q 336.075452 62.834375 336.075452 60.834375 
L 336.075452 17.8 
Q 336.075452 15.8 334.075452 15.8 
L 252.341077 15.8 
Q 250.341077 15.8 250.341077 17.8 
L 250.341077 60.834375 
Q 250.341077 62.834375 252.341077 62.834375 
z
" style="fill: #ffffff; opacity: 0.8; stroke: #cccccc; stroke-linejoin: miter"/>
    </g>
    <g id="line2d_18">
     <path d="M 254.341077 23.898438 
L 264.341077 23.898438 
L 274.341077 23.898438 
" style="fill: none; stroke-dasharray: 3.7,1.6; stroke-dashoffset: 0; stroke: #000000"/>
    </g>
    <g id="text_18">
     <!-- Scipy fit -->
     <g transform="translate(282.341077 27.398438) scale(0.1 -0.1)">
      <defs>
       <path id="DejaVuSans-53" d="M 3425 4513 
L 3425 3897 
Q 3066 4069 2747 4153 
Q 2428 4238 2131 4238 
Q 1616 4238 1336 4038 
Q 1056 3838 1056 3469 
Q 1056 3159 1242 3001 
Q 1428 2844 1947 2747 
L 2328 2669 
Q 3034 2534 3370 2195 
Q 3706 1856 3706 1288 
Q 3706 609 3251 259 
Q 2797 -91 1919 -91 
Q 1588 -91 1214 -16 
Q 841 59 441 206 
L 441 856 
Q 825 641 1194 531 
Q 1563 422 1919 422 
Q 2459 422 2753 634 
Q 3047 847 3047 1241 
Q 3047 1584 2836 1778 
Q 2625 1972 2144 2069 
L 1759 2144 
Q 1053 2284 737 2584 
Q 422 2884 422 3419 
Q 422 4038 858 4394 
Q 1294 4750 2059 4750 
Q 2388 4750 2728 4690 
Q 3069 4631 3425 4513 
z
" transform="scale(0.015625)"/>
       <path id="DejaVuSans-69" d="M 603 3500 
L 1178 3500 
L 1178 0 
L 603 0 
L 603 3500 
z
M 603 4863 
L 1178 4863 
L 1178 4134 
L 603 4134 
L 603 4863 
z
" transform="scale(0.015625)"/>
       <path id="DejaVuSans-70" d="M 1159 525 
L 1159 -1331 
L 581 -1331 
L 581 3500 
L 1159 3500 
L 1159 2969 
Q 1341 3281 1617 3432 
Q 1894 3584 2278 3584 
Q 2916 3584 3314 3078 
Q 3713 2572 3713 1747 
Q 3713 922 3314 415 
Q 2916 -91 2278 -91 
Q 1894 -91 1617 61 
Q 1341 213 1159 525 
z
M 3116 1747 
Q 3116 2381 2855 2742 
Q 2594 3103 2138 3103 
Q 1681 3103 1420 2742 
Q 1159 2381 1159 1747 
Q 1159 1113 1420 752 
Q 1681 391 2138 391 
Q 2594 391 2855 752 
Q 3116 1113 3116 1747 
z
" transform="scale(0.015625)"/>
       <path id="DejaVuSans-79" d="M 2059 -325 
Q 1816 -950 1584 -1140 
Q 1353 -1331 966 -1331 
L 506 -1331 
L 506 -850 
L 844 -850 
Q 1081 -850 1212 -737 
Q 1344 -625 1503 -206 
L 1606 56 
L 191 3500 
L 800 3500 
L 1894 763 
L 2988 3500 
L 3597 3500 
L 2059 -325 
z
" transform="scale(0.015625)"/>
       <path id="DejaVuSans-20" transform="scale(0.015625)"/>
       <path id="DejaVuSans-66" d="M 2375 4863 
L 2375 4384 
L 1825 4384 
Q 1516 4384 1395 4259 
Q 1275 4134 1275 3809 
L 1275 3500 
L 2222 3500 
L 2222 3053 
L 1275 3053 
L 1275 0 
L 697 0 
L 697 3053 
L 147 3053 
L 147 3500 
L 697 3500 
L 697 3744 
Q 697 4328 969 4595 
Q 1241 4863 1831 4863 
L 2375 4863 
z
" transform="scale(0.015625)"/>
       <path id="DejaVuSans-74" d="M 1172 4494 
L 1172 3500 
L 2356 3500 
L 2356 3053 
L 1172 3053 
L 1172 1153 
Q 1172 725 1289 603 
Q 1406 481 1766 481 
L 2356 481 
L 2356 0 
L 1766 0 
Q 1100 0 847 248 
Q 594 497 594 1153 
L 594 3053 
L 172 3053 
L 172 3500 
L 594 3500 
L 594 4494 
L 1172 4494 
z
" transform="scale(0.015625)"/>
      </defs>
      <use xlink:href="#DejaVuSans-53"/>
      <use xlink:href="#DejaVuSans-63" transform="translate(63.476562 0)"/>
      <use xlink:href="#DejaVuSans-69" transform="translate(118.457031 0)"/>
      <use xlink:href="#DejaVuSans-70" transform="translate(146.240234 0)"/>
      <use xlink:href="#DejaVuSans-79" transform="translate(209.716797 0)"/>
      <use xlink:href="#DejaVuSans-20" transform="translate(268.896484 0)"/>
      <use xlink:href="#DejaVuSans-66" transform="translate(300.683594 0)"/>
      <use xlink:href="#DejaVuSans-69" transform="translate(335.888672 0)"/>
      <use xlink:href="#DejaVuSans-74" transform="translate(363.671875 0)"/>
     </g>
    </g>
    <g id="line2d_19">
     <path d="M 254.341077 38.576563 
L 264.341077 38.576563 
L 274.341077 38.576563 
" style="fill: none; stroke: #000000; stroke-linecap: square"/>
    </g>
    <g id="text_19">
     <!-- Manual fit -->
     <g transform="translate(282.341077 42.076563) scale(0.1 -0.1)">
      <defs>
       <path id="DejaVuSans-61" d="M 2194 1759 
Q 1497 1759 1228 1600 
Q 959 1441 959 1056 
Q 959 750 1161 570 
Q 1363 391 1709 391 
Q 2188 391 2477 730 
Q 2766 1069 2766 1631 
L 2766 1759 
L 2194 1759 
z
M 3341 1997 
L 3341 0 
L 2766 0 
L 2766 531 
Q 2569 213 2275 61 
Q 1981 -91 1556 -91 
Q 1019 -91 701 211 
Q 384 513 384 1019 
Q 384 1609 779 1909 
Q 1175 2209 1959 2209 
L 2766 2209 
L 2766 2266 
Q 2766 2663 2505 2880 
Q 2244 3097 1772 3097 
Q 1472 3097 1187 3025 
Q 903 2953 641 2809 
L 641 3341 
Q 956 3463 1253 3523 
Q 1550 3584 1831 3584 
Q 2591 3584 2966 3190 
Q 3341 2797 3341 1997 
z
" transform="scale(0.015625)"/>
       <path id="DejaVuSans-6e" d="M 3513 2113 
L 3513 0 
L 2938 0 
L 2938 2094 
Q 2938 2591 2744 2837 
Q 2550 3084 2163 3084 
Q 1697 3084 1428 2787 
Q 1159 2491 1159 1978 
L 1159 0 
L 581 0 
L 581 3500 
L 1159 3500 
L 1159 2956 
Q 1366 3272 1645 3428 
Q 1925 3584 2291 3584 
Q 2894 3584 3203 3211 
Q 3513 2838 3513 2113 
z
" transform="scale(0.015625)"/>
       <path id="DejaVuSans-75" d="M 544 1381 
L 544 3500 
L 1119 3500 
L 1119 1403 
Q 1119 906 1312 657 
Q 1506 409 1894 409 
Q 2359 409 2629 706 
Q 2900 1003 2900 1516 
L 2900 3500 
L 3475 3500 
L 3475 0 
L 2900 0 
L 2900 538 
Q 2691 219 2414 64 
Q 2138 -91 1772 -91 
Q 1169 -91 856 284 
Q 544 659 544 1381 
z
M 1991 3584 
L 1991 3584 
z
" transform="scale(0.015625)"/>
       <path id="DejaVuSans-6c" d="M 603 4863 
L 1178 4863 
L 1178 0 
L 603 0 
L 603 4863 
z
" transform="scale(0.015625)"/>
      </defs>
      <use xlink:href="#DejaVuSans-4d"/>
      <use xlink:href="#DejaVuSans-61" transform="translate(86.279297 0)"/>
      <use xlink:href="#DejaVuSans-6e" transform="translate(147.558594 0)"/>
      <use xlink:href="#DejaVuSans-75" transform="translate(210.9375 0)"/>
      <use xlink:href="#DejaVuSans-61" transform="translate(274.316406 0)"/>
      <use xlink:href="#DejaVuSans-6c" transform="translate(335.595703 0)"/>
      <use xlink:href="#DejaVuSans-20" transform="translate(363.378906 0)"/>
      <use xlink:href="#DejaVuSans-66" transform="translate(395.166016 0)"/>
      <use xlink:href="#DejaVuSans-69" transform="translate(430.371094 0)"/>
      <use xlink:href="#DejaVuSans-74" transform="translate(458.154297 0)"/>
     </g>
    </g>
    <g id="patch_108">
     <path d="M 254.341077 56.754688 
L 274.341077 56.754688 
L 274.341077 49.754688 
L 254.341077 49.754688 
z
" style="fill: #d3d3d3; stroke: #d3d3d3; stroke-linejoin: miter"/>
    </g>
    <g id="text_20">
     <!-- FPs (fold) -->
     <g transform="translate(282.341077 56.754688) scale(0.1 -0.1)">
      <defs>
       <path id="DejaVuSans-28" d="M 1984 4856 
Q 1566 4138 1362 3434 
Q 1159 2731 1159 2009 
Q 1159 1288 1364 580 
Q 1569 -128 1984 -844 
L 1484 -844 
Q 1016 -109 783 600 
Q 550 1309 550 2009 
Q 550 2706 781 3412 
Q 1013 4119 1484 4856 
L 1984 4856 
z
" transform="scale(0.015625)"/>
       <path id="DejaVuSans-64" d="M 2906 2969 
L 2906 4863 
L 3481 4863 
L 3481 0 
L 2906 0 
L 2906 525 
Q 2725 213 2448 61 
Q 2172 -91 1784 -91 
Q 1150 -91 751 415 
Q 353 922 353 1747 
Q 353 2572 751 3078 
Q 1150 3584 1784 3584 
Q 2172 3584 2448 3432 
Q 2725 3281 2906 2969 
z
M 947 1747 
Q 947 1113 1208 752 
Q 1469 391 1925 391 
Q 2381 391 2643 752 
Q 2906 1113 2906 1747 
Q 2906 2381 2643 2742 
Q 2381 3103 1925 3103 
Q 1469 3103 1208 2742 
Q 947 2381 947 1747 
z
" transform="scale(0.015625)"/>
       <path id="DejaVuSans-29" d="M 513 4856 
L 1013 4856 
Q 1481 4119 1714 3412 
Q 1947 2706 1947 2009 
Q 1947 1309 1714 600 
Q 1481 -109 1013 -844 
L 513 -844 
Q 928 -128 1133 580 
Q 1338 1288 1338 2009 
Q 1338 2731 1133 3434 
Q 928 4138 513 4856 
z
" transform="scale(0.015625)"/>
      </defs>
      <use xlink:href="#DejaVuSans-46"/>
      <use xlink:href="#DejaVuSans-50" transform="translate(57.519531 0)"/>
      <use xlink:href="#DejaVuSans-73" transform="translate(116.072266 0)"/>
      <use xlink:href="#DejaVuSans-20" transform="translate(168.171875 0)"/>
      <use xlink:href="#DejaVuSans-28" transform="translate(199.958984 0)"/>
      <use xlink:href="#DejaVuSans-66" transform="translate(238.972656 0)"/>
      <use xlink:href="#DejaVuSans-6f" transform="translate(274.177734 0)"/>
      <use xlink:href="#DejaVuSans-6c" transform="translate(335.359375 0)"/>
      <use xlink:href="#DejaVuSans-64" transform="translate(363.142578 0)"/>
      <use xlink:href="#DejaVuSans-29" transform="translate(426.619141 0)"/>
     </g>
    </g>
   </g>
  </g>
  <g id="axes_2">
   <g id="patch_109">
    <path d="M 404.819548 174.04 
L 701.235 174.04 
L 701.235 10.8 
L 404.819548 10.8 
z
" style="fill: #ffffff"/>
   </g>
   <g id="patch_110">
    <path d="M 448.848358 45401.915269 
L 450.529127 45401.915269 
L 450.529127 136.859592 
L 448.848358 136.859592 
z
" clip-path="url(#p559d949db9)" style="fill: #d3d3d3; stroke: #d3d3d3; stroke-linejoin: miter"/>
   </g>
   <g id="patch_111">
    <path d="M 450.529127 45401.915269 
L 452.209895 45401.915269 
L 452.209895 144.839786 
L 450.529127 144.839786 
z
" clip-path="url(#p559d949db9)" style="fill: #d3d3d3; stroke: #d3d3d3; stroke-linejoin: miter"/>
   </g>
   <g id="patch_112">
    <path d="M 452.209895 45401.915269 
L 453.890663 45401.915269 
L 453.890663 144.839786 
L 452.209895 144.839786 
z
" clip-path="url(#p559d949db9)" style="fill: #d3d3d3; stroke: #d3d3d3; stroke-linejoin: miter"/>
   </g>
   <g id="patch_113">
    <path d="M 453.890663 45401.915269 
L 455.571431 45401.915269 
L 455.571431 158.482018 
L 453.890663 158.482018 
z
" clip-path="url(#p559d949db9)" style="fill: #d3d3d3; stroke: #d3d3d3; stroke-linejoin: miter"/>
   </g>
   <g id="patch_114">
    <path d="M 455.571431 45401.915269 
L 457.252199 45401.915269 
L 457.252199 131.197555 
L 455.571431 131.197555 
z
" clip-path="url(#p559d949db9)" style="fill: #d3d3d3; stroke: #d3d3d3; stroke-linejoin: miter"/>
   </g>
   <g id="patch_115">
    <path d="M 457.252199 45401.915269 
L 458.932968 45401.915269 
L 458.932968 131.197555 
L 457.252199 131.197555 
z
" clip-path="url(#p559d949db9)" style="fill: #d3d3d3; stroke: #d3d3d3; stroke-linejoin: miter"/>
   </g>
   <g id="patch_116">
    <path d="M 458.932968 45401.915269 
L 460.613736 45401.915269 
L 460.613736 115.237167 
L 458.932968 115.237167 
z
" clip-path="url(#p559d949db9)" style="fill: #d3d3d3; stroke: #d3d3d3; stroke-linejoin: miter"/>
   </g>
   <g id="patch_117">
    <path d="M 460.613736 45401.915269 
L 462.294504 45401.915269 
L 462.294504 117.555323 
L 460.613736 117.555323 
z
" clip-path="url(#p559d949db9)" style="fill: #d3d3d3; stroke: #d3d3d3; stroke-linejoin: miter"/>
   </g>
   <g id="patch_118">
    <path d="M 462.294504 45401.915269 
L 463.975272 45401.915269 
L 463.975272 117.555323 
L 462.294504 117.555323 
z
" clip-path="url(#p559d949db9)" style="fill: #d3d3d3; stroke: #d3d3d3; stroke-linejoin: miter"/>
   </g>
   <g id="patch_119">
    <path d="M 463.975272 45401.915269 
L 465.656041 45401.915269 
L 465.656041 111.287651 
L 463.975272 111.287651 
z
" clip-path="url(#p559d949db9)" style="fill: #d3d3d3; stroke: #d3d3d3; stroke-linejoin: miter"/>
   </g>
   <g id="patch_120">
    <path d="M 465.656041 45401.915269 
L 467.336809 45401.915269 
L 467.336809 111.287651 
L 465.656041 111.287651 
z
" clip-path="url(#p559d949db9)" style="fill: #d3d3d3; stroke: #d3d3d3; stroke-linejoin: miter"/>
   </g>
   <g id="patch_121">
    <path d="M 467.336809 45401.915269 
L 469.017577 45401.915269 
L 469.017577 100.530807 
L 467.336809 100.530807 
z
" clip-path="url(#p559d949db9)" style="fill: #d3d3d3; stroke: #d3d3d3; stroke-linejoin: miter"/>
   </g>
   <g id="patch_122">
    <path d="M 469.017577 45401.915269 
L 470.698345 45401.915269 
L 470.698345 92.898969 
L 469.017577 92.898969 
z
" clip-path="url(#p559d949db9)" style="fill: #d3d3d3; stroke: #d3d3d3; stroke-linejoin: miter"/>
   </g>
   <g id="patch_123">
    <path d="M 470.698345 45401.915269 
L 472.379114 45401.915269 
L 472.379114 94.357531 
L 470.698345 94.357531 
z
" clip-path="url(#p559d949db9)" style="fill: #d3d3d3; stroke: #d3d3d3; stroke-linejoin: miter"/>
   </g>
   <g id="patch_124">
    <path d="M 472.379114 45401.915269 
L 474.059882 45401.915269 
L 474.059882 86.888576 
L 472.379114 86.888576 
z
" clip-path="url(#p559d949db9)" style="fill: #d3d3d3; stroke: #d3d3d3; stroke-linejoin: miter"/>
   </g>
   <g id="patch_125">
    <path d="M 474.059882 45401.915269 
L 475.74065 45401.915269 
L 475.74065 79.61137 
L 474.059882 79.61137 
z
" clip-path="url(#p559d949db9)" style="fill: #d3d3d3; stroke: #d3d3d3; stroke-linejoin: miter"/>
   </g>
   <g id="patch_126">
    <path d="M 475.74065 45401.915269 
L 477.421418 45401.915269 
L 477.421418 76.022994 
L 475.74065 76.022994 
z
" clip-path="url(#p559d949db9)" style="fill: #d3d3d3; stroke: #d3d3d3; stroke-linejoin: miter"/>
   </g>
   <g id="patch_127">
    <path d="M 477.421418 45401.915269 
L 479.102187 45401.915269 
L 479.102187 77.898849 
L 477.421418 77.898849 
z
" clip-path="url(#p559d949db9)" style="fill: #d3d3d3; stroke: #d3d3d3; stroke-linejoin: miter"/>
   </g>
   <g id="patch_128">
    <path d="M 479.102187 45401.915269 
L 480.782955 45401.915269 
L 480.782955 69.918655 
L 479.102187 69.918655 
z
" clip-path="url(#p559d949db9)" style="fill: #d3d3d3; stroke: #d3d3d3; stroke-linejoin: miter"/>
   </g>
   <g id="patch_129">
    <path d="M 480.782955 45401.915269 
L 482.463723 45401.915269 
L 482.463723 66.698169 
L 480.782955 66.698169 
z
" clip-path="url(#p559d949db9)" style="fill: #d3d3d3; stroke: #d3d3d3; stroke-linejoin: miter"/>
   </g>
   <g id="patch_130">
    <path d="M 482.463723 45401.915269 
L 484.144491 45401.915269 
L 484.144491 59.219444 
L 482.463723 59.219444 
z
" clip-path="url(#p559d949db9)" style="fill: #d3d3d3; stroke: #d3d3d3; stroke-linejoin: miter"/>
   </g>
   <g id="patch_131">
    <path d="M 484.144491 45401.915269 
L 485.82526 45401.915269 
L 485.82526 58.717975 
L 484.144491 58.717975 
z
" clip-path="url(#p559d949db9)" style="fill: #d3d3d3; stroke: #d3d3d3; stroke-linejoin: miter"/>
   </g>
   <g id="patch_132">
    <path d="M 485.82526 45401.915269 
L 487.506028 45401.915269 
L 487.506028 55.420567 
L 485.82526 55.420567 
z
" clip-path="url(#p559d949db9)" style="fill: #d3d3d3; stroke: #d3d3d3; stroke-linejoin: miter"/>
   </g>
   <g id="patch_133">
    <path d="M 487.506028 45401.915269 
L 489.186796 45401.915269 
L 489.186796 51.366639 
L 487.506028 51.366639 
z
" clip-path="url(#p559d949db9)" style="fill: #d3d3d3; stroke: #d3d3d3; stroke-linejoin: miter"/>
   </g>
   <g id="patch_134">
    <path d="M 489.186796 45401.915269 
L 490.867564 45401.915269 
L 490.867564 48.888201 
L 489.186796 48.888201 
z
" clip-path="url(#p559d949db9)" style="fill: #d3d3d3; stroke: #d3d3d3; stroke-linejoin: miter"/>
   </g>
   <g id="patch_135">
    <path d="M 490.867564 45401.915269 
L 492.548333 45401.915269 
L 492.548333 47.094467 
L 490.867564 47.094467 
z
" clip-path="url(#p559d949db9)" style="fill: #d3d3d3; stroke: #d3d3d3; stroke-linejoin: miter"/>
   </g>
   <g id="patch_136">
    <path d="M 492.548333 45401.915269 
L 494.229101 45401.915269 
L 494.229101 42.308869 
L 492.548333 42.308869 
z
" clip-path="url(#p559d949db9)" style="fill: #d3d3d3; stroke: #d3d3d3; stroke-linejoin: miter"/>
   </g>
   <g id="patch_137">
    <path d="M 494.229101 45401.915269 
L 495.909869 45401.915269 
L 495.909869 40.85799 
L 494.229101 40.85799 
z
" clip-path="url(#p559d949db9)" style="fill: #d3d3d3; stroke: #d3d3d3; stroke-linejoin: miter"/>
   </g>
   <g id="patch_138">
    <path d="M 495.909869 45401.915269 
L 497.590637 45401.915269 
L 497.590637 38.0682 
L 495.909869 38.0682 
z
" clip-path="url(#p559d949db9)" style="fill: #d3d3d3; stroke: #d3d3d3; stroke-linejoin: miter"/>
   </g>
   <g id="patch_139">
    <path d="M 497.590637 45401.915269 
L 499.271406 45401.915269 
L 499.271406 39.091427 
L 497.590637 39.091427 
z
" clip-path="url(#p559d949db9)" style="fill: #d3d3d3; stroke: #d3d3d3; stroke-linejoin: miter"/>
   </g>
   <g id="patch_140">
    <path d="M 499.271406 45401.915269 
L 500.952174 45401.915269 
L 500.952174 38.111599 
L 499.271406 38.111599 
z
" clip-path="url(#p559d949db9)" style="fill: #d3d3d3; stroke: #d3d3d3; stroke-linejoin: miter"/>
   </g>
   <g id="patch_141">
    <path d="M 500.952174 45401.915269 
L 502.632942 45401.915269 
L 502.632942 38.550938 
L 500.952174 38.550938 
z
" clip-path="url(#p559d949db9)" style="fill: #d3d3d3; stroke: #d3d3d3; stroke-linejoin: miter"/>
   </g>
   <g id="patch_142">
    <path d="M 502.632942 45401.915269 
L 504.31371 45401.915269 
L 504.31371 38.729457 
L 502.632942 38.729457 
z
" clip-path="url(#p559d949db9)" style="fill: #d3d3d3; stroke: #d3d3d3; stroke-linejoin: miter"/>
   </g>
   <g id="patch_143">
    <path d="M 504.31371 45401.915269 
L 505.994478 45401.915269 
L 505.994478 39.091427 
L 504.31371 39.091427 
z
" clip-path="url(#p559d949db9)" style="fill: #d3d3d3; stroke: #d3d3d3; stroke-linejoin: miter"/>
   </g>
   <g id="patch_144">
    <path d="M 505.994478 45401.915269 
L 507.675247 45401.915269 
L 507.675247 39.367342 
L 505.994478 39.367342 
z
" clip-path="url(#p559d949db9)" style="fill: #d3d3d3; stroke: #d3d3d3; stroke-linejoin: miter"/>
   </g>
   <g id="patch_145">
    <path d="M 507.675247 45401.915269 
L 509.356015 45401.915269 
L 509.356015 38.684675 
L 507.675247 38.684675 
z
" clip-path="url(#p559d949db9)" style="fill: #d3d3d3; stroke: #d3d3d3; stroke-linejoin: miter"/>
   </g>
   <g id="patch_146">
    <path d="M 509.356015 45401.915269 
L 511.036783 45401.915269 
L 511.036783 40.708698 
L 509.356015 40.708698 
z
" clip-path="url(#p559d949db9)" style="fill: #d3d3d3; stroke: #d3d3d3; stroke-linejoin: miter"/>
   </g>
   <g id="patch_147">
    <path d="M 511.036783 45401.915269 
L 512.717551 45401.915269 
L 512.717551 44.647201 
L 511.036783 44.647201 
z
" clip-path="url(#p559d949db9)" style="fill: #d3d3d3; stroke: #d3d3d3; stroke-linejoin: miter"/>
   </g>
   <g id="patch_148">
    <path d="M 512.717551 45401.915269 
L 514.39832 45401.915269 
L 514.39832 42.362717 
L 512.717551 42.362717 
z
" clip-path="url(#p559d949db9)" style="fill: #d3d3d3; stroke: #d3d3d3; stroke-linejoin: miter"/>
   </g>
   <g id="patch_149">
    <path d="M 514.39832 45401.915269 
L 516.079088 45401.915269 
L 516.079088 46.822053 
L 514.39832 46.822053 
z
" clip-path="url(#p559d949db9)" style="fill: #d3d3d3; stroke: #d3d3d3; stroke-linejoin: miter"/>
   </g>
   <g id="patch_150">
    <path d="M 516.079088 45401.915269 
L 517.759856 45401.915269 
L 517.759856 48.58999 
L 516.079088 48.58999 
z
" clip-path="url(#p559d949db9)" style="fill: #d3d3d3; stroke: #d3d3d3; stroke-linejoin: miter"/>
   </g>
   <g id="patch_151">
    <path d="M 517.759856 45401.915269 
L 519.440624 45401.915269 
L 519.440624 50.208565 
L 517.759856 50.208565 
z
" clip-path="url(#p559d949db9)" style="fill: #d3d3d3; stroke: #d3d3d3; stroke-linejoin: miter"/>
   </g>
   <g id="patch_152">
    <path d="M 519.440624 45401.915269 
L 521.121393 45401.915269 
L 521.121393 51.452026 
L 519.440624 51.452026 
z
" clip-path="url(#p559d949db9)" style="fill: #d3d3d3; stroke: #d3d3d3; stroke-linejoin: miter"/>
   </g>
   <g id="patch_153">
    <path d="M 521.121393 45401.915269 
L 522.802161 45401.915269 
L 522.802161 55.420567 
L 521.121393 55.420567 
z
" clip-path="url(#p559d949db9)" style="fill: #d3d3d3; stroke: #d3d3d3; stroke-linejoin: miter"/>
   </g>
   <g id="patch_154">
    <path d="M 522.802161 45401.915269 
L 524.482929 45401.915269 
L 524.482929 55.843844 
L 522.802161 55.843844 
z
" clip-path="url(#p559d949db9)" style="fill: #d3d3d3; stroke: #d3d3d3; stroke-linejoin: miter"/>
   </g>
   <g id="patch_155">
    <path d="M 524.482929 45401.915269 
L 526.163697 45401.915269 
L 526.163697 58.471952 
L 524.482929 58.471952 
z
" clip-path="url(#p559d949db9)" style="fill: #d3d3d3; stroke: #d3d3d3; stroke-linejoin: miter"/>
   </g>
   <g id="patch_156">
    <path d="M 526.163697 45401.915269 
L 527.844466 45401.915269 
L 527.844466 60.943512 
L 526.163697 60.943512 
z
" clip-path="url(#p559d949db9)" style="fill: #d3d3d3; stroke: #d3d3d3; stroke-linejoin: miter"/>
   </g>
   <g id="patch_157">
    <path d="M 527.844466 45401.915269 
L 529.525234 45401.915269 
L 529.525234 67.073068 
L 527.844466 67.073068 
z
" clip-path="url(#p559d949db9)" style="fill: #d3d3d3; stroke: #d3d3d3; stroke-linejoin: miter"/>
   </g>
   <g id="patch_158">
    <path d="M 529.525234 45401.915269 
L 531.206002 45401.915269 
L 531.206002 66.884726 
L 529.525234 66.884726 
z
" clip-path="url(#p559d949db9)" style="fill: #d3d3d3; stroke: #d3d3d3; stroke-linejoin: miter"/>
   </g>
   <g id="patch_159">
    <path d="M 531.206002 45401.915269 
L 532.88677 45401.915269 
L 532.88677 67.649155 
L 531.206002 67.649155 
z
" clip-path="url(#p559d949db9)" style="fill: #d3d3d3; stroke: #d3d3d3; stroke-linejoin: miter"/>
   </g>
   <g id="patch_160">
    <path d="M 532.88677 45401.915269 
L 534.567539 45401.915269 
L 534.567539 68.854526 
L 532.88677 68.854526 
z
" clip-path="url(#p559d949db9)" style="fill: #d3d3d3; stroke: #d3d3d3; stroke-linejoin: miter"/>
   </g>
   <g id="patch_161">
    <path d="M 534.567539 45401.915269 
L 536.248307 45401.915269 
L 536.248307 74.310472 
L 534.567539 74.310472 
z
" clip-path="url(#p559d949db9)" style="fill: #d3d3d3; stroke: #d3d3d3; stroke-linejoin: miter"/>
   </g>
   <g id="patch_162">
    <path d="M 536.248307 45401.915269 
L 537.929075 45401.915269 
L 537.929075 76.938581 
L 536.248307 76.938581 
z
" clip-path="url(#p559d949db9)" style="fill: #d3d3d3; stroke: #d3d3d3; stroke-linejoin: miter"/>
   </g>
   <g id="patch_163">
    <path d="M 537.929075 45401.915269 
L 539.609843 45401.915269 
L 539.609843 77.573526 
L 537.929075 77.573526 
z
" clip-path="url(#p559d949db9)" style="fill: #d3d3d3; stroke: #d3d3d3; stroke-linejoin: miter"/>
   </g>
   <g id="patch_164">
    <path d="M 539.609843 45401.915269 
L 541.290612 45401.915269 
L 541.290612 77.253493 
L 539.609843 77.253493 
z
" clip-path="url(#p559d949db9)" style="fill: #d3d3d3; stroke: #d3d3d3; stroke-linejoin: miter"/>
   </g>
   <g id="patch_165">
    <path d="M 541.290612 45401.915269 
L 542.97138 45401.915269 
L 542.97138 82.705031 
L 541.290612 82.705031 
z
" clip-path="url(#p559d949db9)" style="fill: #d3d3d3; stroke: #d3d3d3; stroke-linejoin: miter"/>
   </g>
   <g id="patch_166">
    <path d="M 542.97138 45401.915269 
L 544.652148 45401.915269 
L 544.652148 92.898969 
L 542.97138 92.898969 
z
" clip-path="url(#p559d949db9)" style="fill: #d3d3d3; stroke: #d3d3d3; stroke-linejoin: miter"/>
   </g>
   <g id="patch_167">
    <path d="M 544.652148 45401.915269 
L 546.332916 45401.915269 
L 546.332916 83.560886 
L 544.652148 83.560886 
z
" clip-path="url(#p559d949db9)" style="fill: #d3d3d3; stroke: #d3d3d3; stroke-linejoin: miter"/>
   </g>
   <g id="patch_168">
    <path d="M 546.332916 45401.915269 
L 548.013685 45401.915269 
L 548.013685 86.888576 
L 546.332916 86.888576 
z
" clip-path="url(#p559d949db9)" style="fill: #d3d3d3; stroke: #d3d3d3; stroke-linejoin: miter"/>
   </g>
   <g id="patch_169">
    <path d="M 548.013685 45401.915269 
L 549.694453 45401.915269 
L 549.694453 99.521274 
L 548.013685 99.521274 
z
" clip-path="url(#p559d949db9)" style="fill: #d3d3d3; stroke: #d3d3d3; stroke-linejoin: miter"/>
   </g>
   <g id="patch_170">
    <path d="M 549.694453 45401.915269 
L 551.375221 45401.915269 
L 551.375221 96.770538 
L 549.694453 96.770538 
z
" clip-path="url(#p559d949db9)" style="fill: #d3d3d3; stroke: #d3d3d3; stroke-linejoin: miter"/>
   </g>
   <g id="patch_171">
    <path d="M 551.375221 45401.915269 
L 553.055989 45401.915269 
L 553.055989 96.770538 
L 551.375221 96.770538 
z
" clip-path="url(#p559d949db9)" style="fill: #d3d3d3; stroke: #d3d3d3; stroke-linejoin: miter"/>
   </g>
   <g id="patch_172">
    <path d="M 553.055989 45401.915269 
L 554.736758 45401.915269 
L 554.736758 99.521274 
L 553.055989 99.521274 
z
" clip-path="url(#p559d949db9)" style="fill: #d3d3d3; stroke: #d3d3d3; stroke-linejoin: miter"/>
   </g>
   <g id="patch_173">
    <path d="M 554.736758 45401.915269 
L 556.417526 45401.915269 
L 556.417526 106.5412 
L 554.736758 106.5412 
z
" clip-path="url(#p559d949db9)" style="fill: #d3d3d3; stroke: #d3d3d3; stroke-linejoin: miter"/>
   </g>
   <g id="patch_174">
    <path d="M 556.417526 45401.915269 
L 558.098294 45401.915269 
L 558.098294 96.770538 
L 556.417526 96.770538 
z
" clip-path="url(#p559d949db9)" style="fill: #d3d3d3; stroke: #d3d3d3; stroke-linejoin: miter"/>
   </g>
   <g id="patch_175">
    <path d="M 558.098294 45401.915269 
L 559.779062 45401.915269 
L 559.779062 98.561007 
L 558.098294 98.561007 
z
" clip-path="url(#p559d949db9)" style="fill: #d3d3d3; stroke: #d3d3d3; stroke-linejoin: miter"/>
   </g>
   <g id="patch_176">
    <path d="M 559.779062 45401.915269 
L 561.45983 45401.915269 
L 561.45983 105.183312 
L 559.779062 105.183312 
z
" clip-path="url(#p559d949db9)" style="fill: #d3d3d3; stroke: #d3d3d3; stroke-linejoin: miter"/>
   </g>
   <g id="patch_177">
    <path d="M 561.45983 45401.915269 
L 563.140599 45401.915269 
L 563.140599 107.999762 
L 561.45983 107.999762 
z
" clip-path="url(#p559d949db9)" style="fill: #d3d3d3; stroke: #d3d3d3; stroke-linejoin: miter"/>
   </g>
   <g id="patch_178">
    <path d="M 563.140599 45401.915269 
L 564.821367 45401.915269 
L 564.821367 113.163506 
L 563.140599 113.163506 
z
" clip-path="url(#p559d949db9)" style="fill: #d3d3d3; stroke: #d3d3d3; stroke-linejoin: miter"/>
   </g>
   <g id="patch_179">
    <path d="M 564.821367 45401.915269 
L 566.502135 45401.915269 
L 566.502135 115.237167 
L 564.821367 115.237167 
z
" clip-path="url(#p559d949db9)" style="fill: #d3d3d3; stroke: #d3d3d3; stroke-linejoin: miter"/>
   </g>
   <g id="patch_180">
    <path d="M 566.502135 45401.915269 
L 568.182903 45401.915269 
L 568.182903 131.197555 
L 566.502135 131.197555 
z
" clip-path="url(#p559d949db9)" style="fill: #d3d3d3; stroke: #d3d3d3; stroke-linejoin: miter"/>
   </g>
   <g id="patch_181">
    <path d="M 568.182903 45401.915269 
L 569.863672 45401.915269 
L 569.863672 113.163506 
L 568.182903 113.163506 
z
" clip-path="url(#p559d949db9)" style="fill: #d3d3d3; stroke: #d3d3d3; stroke-linejoin: miter"/>
   </g>
   <g id="patch_182">
    <path d="M 569.863672 45401.915269 
L 571.54444 45401.915269 
L 571.54444 115.237167 
L 569.863672 115.237167 
z
" clip-path="url(#p559d949db9)" style="fill: #d3d3d3; stroke: #d3d3d3; stroke-linejoin: miter"/>
   </g>
   <g id="patch_183">
    <path d="M 571.54444 45401.915269 
L 573.225208 45401.915269 
L 573.225208 117.555323 
L 571.54444 117.555323 
z
" clip-path="url(#p559d949db9)" style="fill: #d3d3d3; stroke: #d3d3d3; stroke-linejoin: miter"/>
   </g>
   <g id="patch_184">
    <path d="M 573.225208 45401.915269 
L 574.905976 45401.915269 
L 574.905976 117.555323 
L 573.225208 117.555323 
z
" clip-path="url(#p559d949db9)" style="fill: #d3d3d3; stroke: #d3d3d3; stroke-linejoin: miter"/>
   </g>
   <g id="patch_185">
    <path d="M 574.905976 45401.915269 
L 576.586745 45401.915269 
L 576.586745 123.217361 
L 574.905976 123.217361 
z
" clip-path="url(#p559d949db9)" style="fill: #d3d3d3; stroke: #d3d3d3; stroke-linejoin: miter"/>
   </g>
   <g id="patch_186">
    <path d="M 576.586745 45401.915269 
L 578.267513 45401.915269 
L 578.267513 126.805737 
L 576.586745 126.805737 
z
" clip-path="url(#p559d949db9)" style="fill: #d3d3d3; stroke: #d3d3d3; stroke-linejoin: miter"/>
   </g>
   <g id="patch_187">
    <path d="M 578.267513 45401.915269 
L 579.948281 45401.915269 
L 579.948281 136.859592 
L 578.267513 136.859592 
z
" clip-path="url(#p559d949db9)" style="fill: #d3d3d3; stroke: #d3d3d3; stroke-linejoin: miter"/>
   </g>
   <g id="patch_188">
    <path d="M 579.948281 45401.915269 
L 581.629049 45401.915269 
L 581.629049 131.197555 
L 579.948281 131.197555 
z
" clip-path="url(#p559d949db9)" style="fill: #d3d3d3; stroke: #d3d3d3; stroke-linejoin: miter"/>
   </g>
   <g id="patch_189">
    <path d="M 581.629049 45401.915269 
L 583.309818 45401.915269 
L 583.309818 144.839786 
L 581.629049 144.839786 
z
" clip-path="url(#p559d949db9)" style="fill: #d3d3d3; stroke: #d3d3d3; stroke-linejoin: miter"/>
   </g>
   <g id="patch_190">
    <path d="M 583.309818 45401.915269 
L 584.990586 45401.915269 
L 584.990586 136.859592 
L 583.309818 136.859592 
z
" clip-path="url(#p559d949db9)" style="fill: #d3d3d3; stroke: #d3d3d3; stroke-linejoin: miter"/>
   </g>
   <g id="patch_191">
    <path d="M 584.990586 45401.915269 
L 586.671354 45401.915269 
L 586.671354 131.197555 
L 584.990586 131.197555 
z
" clip-path="url(#p559d949db9)" style="fill: #d3d3d3; stroke: #d3d3d3; stroke-linejoin: miter"/>
   </g>
   <g id="patch_192">
    <path d="M 586.671354 45401.915269 
L 588.352122 45401.915269 
L 588.352122 158.482018 
L 586.671354 158.482018 
z
" clip-path="url(#p559d949db9)" style="fill: #d3d3d3; stroke: #d3d3d3; stroke-linejoin: miter"/>
   </g>
   <g id="patch_193">
    <path d="M 588.352122 45401.915269 
L 590.032891 45401.915269 
L 590.032891 158.482018 
L 588.352122 158.482018 
z
" clip-path="url(#p559d949db9)" style="fill: #d3d3d3; stroke: #d3d3d3; stroke-linejoin: miter"/>
   </g>
   <g id="patch_194">
    <path d="M 590.032891 45401.915269 
L 591.713659 45401.915269 
L 591.713659 136.859592 
L 590.032891 136.859592 
z
" clip-path="url(#p559d949db9)" style="fill: #d3d3d3; stroke: #d3d3d3; stroke-linejoin: miter"/>
   </g>
   <g id="patch_195">
    <path d="M 591.713659 45401.915269 
L 593.394427 45401.915269 
L 593.394427 158.482018 
L 591.713659 158.482018 
z
" clip-path="url(#p559d949db9)" style="fill: #d3d3d3; stroke: #d3d3d3; stroke-linejoin: miter"/>
   </g>
   <g id="patch_196">
    <path d="M 593.394427 45401.915269 
L 595.075195 45401.915269 
L 595.075195 158.482018 
L 593.394427 158.482018 
z
" clip-path="url(#p559d949db9)" style="fill: #d3d3d3; stroke: #d3d3d3; stroke-linejoin: miter"/>
   </g>
   <g id="patch_197">
    <path d="M 595.075195 45401.915269 
L 596.755964 45401.915269 
L 596.755964 158.482018 
L 595.075195 158.482018 
z
" clip-path="url(#p559d949db9)" style="fill: #d3d3d3; stroke: #d3d3d3; stroke-linejoin: miter"/>
   </g>
   <g id="patch_198">
    <path d="M 596.755964 45401.915269 
L 598.436732 45401.915269 
L 598.436732 158.482018 
L 596.755964 158.482018 
z
" clip-path="url(#p559d949db9)" style="fill: #d3d3d3; stroke: #d3d3d3; stroke-linejoin: miter"/>
   </g>
   <g id="patch_199">
    <path d="M 598.436732 45401.915269 
L 600.1175 45401.915269 
L 600.1175 45401.915269 
L 598.436732 45401.915269 
z
" clip-path="url(#p559d949db9)" style="fill: #d3d3d3; stroke: #d3d3d3; stroke-linejoin: miter"/>
   </g>
   <g id="patch_200">
    <path d="M 600.1175 45401.915269 
L 601.798268 45401.915269 
L 601.798268 144.839786 
L 600.1175 144.839786 
z
" clip-path="url(#p559d949db9)" style="fill: #d3d3d3; stroke: #d3d3d3; stroke-linejoin: miter"/>
   </g>
   <g id="patch_201">
    <path d="M 601.798268 45401.915269 
L 603.479037 45401.915269 
L 603.479037 158.482018 
L 601.798268 158.482018 
z
" clip-path="url(#p559d949db9)" style="fill: #d3d3d3; stroke: #d3d3d3; stroke-linejoin: miter"/>
   </g>
   <g id="patch_202">
    <path d="M 603.479037 45401.915269 
L 605.159805 45401.915269 
L 605.159805 136.859592 
L 603.479037 136.859592 
z
" clip-path="url(#p559d949db9)" style="fill: #d3d3d3; stroke: #d3d3d3; stroke-linejoin: miter"/>
   </g>
   <g id="patch_203">
    <path d="M 605.159805 45401.915269 
L 606.840573 45401.915269 
L 606.840573 45401.915269 
L 605.159805 45401.915269 
z
" clip-path="url(#p559d949db9)" style="fill: #d3d3d3; stroke: #d3d3d3; stroke-linejoin: miter"/>
   </g>
   <g id="patch_204">
    <path d="M 606.840573 45401.915269 
L 608.521341 45401.915269 
L 608.521341 45401.915269 
L 606.840573 45401.915269 
z
" clip-path="url(#p559d949db9)" style="fill: #d3d3d3; stroke: #d3d3d3; stroke-linejoin: miter"/>
   </g>
   <g id="patch_205">
    <path d="M 608.521341 45401.915269 
L 610.20211 45401.915269 
L 610.20211 144.839786 
L 608.521341 144.839786 
z
" clip-path="url(#p559d949db9)" style="fill: #d3d3d3; stroke: #d3d3d3; stroke-linejoin: miter"/>
   </g>
   <g id="patch_206">
    <path d="M 610.20211 45401.915269 
L 611.882878 45401.915269 
L 611.882878 158.482018 
L 610.20211 158.482018 
z
" clip-path="url(#p559d949db9)" style="fill: #d3d3d3; stroke: #d3d3d3; stroke-linejoin: miter"/>
   </g>
   <g id="patch_207">
    <path d="M 611.882878 45401.915269 
L 613.563646 45401.915269 
L 613.563646 45401.915269 
L 611.882878 45401.915269 
z
" clip-path="url(#p559d949db9)" style="fill: #d3d3d3; stroke: #d3d3d3; stroke-linejoin: miter"/>
   </g>
   <g id="patch_208">
    <path d="M 613.563646 45401.915269 
L 615.244414 45401.915269 
L 615.244414 45401.915269 
L 613.563646 45401.915269 
z
" clip-path="url(#p559d949db9)" style="fill: #d3d3d3; stroke: #d3d3d3; stroke-linejoin: miter"/>
   </g>
   <g id="patch_209">
    <path d="M 615.244414 45401.915269 
L 616.925182 45401.915269 
L 616.925182 158.482018 
L 615.244414 158.482018 
z
" clip-path="url(#p559d949db9)" style="fill: #d3d3d3; stroke: #d3d3d3; stroke-linejoin: miter"/>
   </g>
   <g id="matplotlib.axis_3">
    <g id="xtick_10">
     <g id="line2d_20">
      <g>
       <use xlink:href="#m2a532b2132" x="404.819548" y="174.04" style="stroke: #000000; stroke-width: 0.8"/>
      </g>
     </g>
     <g id="text_21">
      <!-- 0.0 -->
      <g transform="translate(396.867986 188.638438) scale(0.1 -0.1)">
       <use xlink:href="#DejaVuSans-30"/>
       <use xlink:href="#DejaVuSans-2e" transform="translate(63.623047 0)"/>
       <use xlink:href="#DejaVuSans-30" transform="translate(95.410156 0)"/>
      </g>
     </g>
    </g>
    <g id="xtick_11">
     <g id="line2d_21">
      <g>
       <use xlink:href="#m2a532b2132" x="441.87148" y="174.04" style="stroke: #000000; stroke-width: 0.8"/>
      </g>
     </g>
     <g id="text_22">
      <!-- 0.1 -->
      <g transform="translate(433.919917 188.638438) scale(0.1 -0.1)">
       <use xlink:href="#DejaVuSans-30"/>
       <use xlink:href="#DejaVuSans-2e" transform="translate(63.623047 0)"/>
       <use xlink:href="#DejaVuSans-31" transform="translate(95.410156 0)"/>
      </g>
     </g>
    </g>
    <g id="xtick_12">
     <g id="line2d_22">
      <g>
       <use xlink:href="#m2a532b2132" x="478.923411" y="174.04" style="stroke: #000000; stroke-width: 0.8"/>
      </g>
     </g>
     <g id="text_23">
      <!-- 0.2 -->
      <g transform="translate(470.971849 188.638438) scale(0.1 -0.1)">
       <use xlink:href="#DejaVuSans-30"/>
       <use xlink:href="#DejaVuSans-2e" transform="translate(63.623047 0)"/>
       <use xlink:href="#DejaVuSans-32" transform="translate(95.410156 0)"/>
      </g>
     </g>
    </g>
    <g id="xtick_13">
     <g id="line2d_23">
      <g>
       <use xlink:href="#m2a532b2132" x="515.975343" y="174.04" style="stroke: #000000; stroke-width: 0.8"/>
      </g>
     </g>
     <g id="text_24">
      <!-- 0.3 -->
      <g transform="translate(508.02378 188.638438) scale(0.1 -0.1)">
       <use xlink:href="#DejaVuSans-30"/>
       <use xlink:href="#DejaVuSans-2e" transform="translate(63.623047 0)"/>
       <use xlink:href="#DejaVuSans-33" transform="translate(95.410156 0)"/>
      </g>
     </g>
    </g>
    <g id="xtick_14">
     <g id="line2d_24">
      <g>
       <use xlink:href="#m2a532b2132" x="553.027274" y="174.04" style="stroke: #000000; stroke-width: 0.8"/>
      </g>
     </g>
     <g id="text_25">
      <!-- 0.4 -->
      <g transform="translate(545.075712 188.638438) scale(0.1 -0.1)">
       <use xlink:href="#DejaVuSans-30"/>
       <use xlink:href="#DejaVuSans-2e" transform="translate(63.623047 0)"/>
       <use xlink:href="#DejaVuSans-34" transform="translate(95.410156 0)"/>
      </g>
     </g>
    </g>
    <g id="xtick_15">
     <g id="line2d_25">
      <g>
       <use xlink:href="#m2a532b2132" x="590.079206" y="174.04" style="stroke: #000000; stroke-width: 0.8"/>
      </g>
     </g>
     <g id="text_26">
      <!-- 0.5 -->
      <g transform="translate(582.127643 188.638438) scale(0.1 -0.1)">
       <use xlink:href="#DejaVuSans-30"/>
       <use xlink:href="#DejaVuSans-2e" transform="translate(63.623047 0)"/>
       <use xlink:href="#DejaVuSans-35" transform="translate(95.410156 0)"/>
      </g>
     </g>
    </g>
    <g id="xtick_16">
     <g id="line2d_26">
      <g>
       <use xlink:href="#m2a532b2132" x="627.131137" y="174.04" style="stroke: #000000; stroke-width: 0.8"/>
      </g>
     </g>
     <g id="text_27">
      <!-- 0.6 -->
      <g transform="translate(619.179575 188.638438) scale(0.1 -0.1)">
       <use xlink:href="#DejaVuSans-30"/>
       <use xlink:href="#DejaVuSans-2e" transform="translate(63.623047 0)"/>
       <use xlink:href="#DejaVuSans-36" transform="translate(95.410156 0)"/>
      </g>
     </g>
    </g>
    <g id="xtick_17">
     <g id="line2d_27">
      <g>
       <use xlink:href="#m2a532b2132" x="664.183069" y="174.04" style="stroke: #000000; stroke-width: 0.8"/>
      </g>
     </g>
     <g id="text_28">
      <!-- 0.7 -->
      <g transform="translate(656.231506 188.638438) scale(0.1 -0.1)">
       <use xlink:href="#DejaVuSans-30"/>
       <use xlink:href="#DejaVuSans-2e" transform="translate(63.623047 0)"/>
       <use xlink:href="#DejaVuSans-37" transform="translate(95.410156 0)"/>
      </g>
     </g>
    </g>
    <g id="xtick_18">
     <g id="line2d_28">
      <g>
       <use xlink:href="#m2a532b2132" x="701.235" y="174.04" style="stroke: #000000; stroke-width: 0.8"/>
      </g>
     </g>
     <g id="text_29">
      <!-- 0.8 -->
      <g transform="translate(693.283437 188.638438) scale(0.1 -0.1)">
       <use xlink:href="#DejaVuSans-30"/>
       <use xlink:href="#DejaVuSans-2e" transform="translate(63.623047 0)"/>
       <use xlink:href="#DejaVuSans-38" transform="translate(95.410156 0)"/>
      </g>
     </g>
    </g>
    <g id="text_30">
     <!-- TM-score -->
     <g transform="translate(530.422587 202.316563) scale(0.1 -0.1)">
      <use xlink:href="#DejaVuSans-54"/>
      <use xlink:href="#DejaVuSans-4d" transform="translate(61.083984 0)"/>
      <use xlink:href="#DejaVuSans-2d" transform="translate(147.363281 0)"/>
      <use xlink:href="#DejaVuSans-73" transform="translate(183.447266 0)"/>
      <use xlink:href="#DejaVuSans-63" transform="translate(235.546875 0)"/>
      <use xlink:href="#DejaVuSans-6f" transform="translate(290.527344 0)"/>
      <use xlink:href="#DejaVuSans-72" transform="translate(351.708984 0)"/>
      <use xlink:href="#DejaVuSans-65" transform="translate(390.572266 0)"/>
     </g>
    </g>
   </g>
   <g id="matplotlib.axis_4">
    <g id="ytick_7">
     <g id="line2d_29">
      <g>
       <use xlink:href="#m759aa89c66" x="404.819548" y="174.04" style="stroke: #000000; stroke-width: 0.8"/>
      </g>
     </g>
     <g id="text_31">
      <!-- $\mathdefault{10^{-2}}$ -->
      <g transform="translate(374.319548 177.839219) scale(0.1 -0.1)">
       <defs>
        <path id="DejaVuSans-2212" d="M 678 2272 
L 4684 2272 
L 4684 1741 
L 678 1741 
L 678 2272 
z
" transform="scale(0.015625)"/>
       </defs>
       <use xlink:href="#DejaVuSans-31" transform="translate(0 0.765625)"/>
       <use xlink:href="#DejaVuSans-30" transform="translate(63.623047 0.765625)"/>
       <use xlink:href="#DejaVuSans-2212" transform="translate(128.203125 39.046875) scale(0.7)"/>
       <use xlink:href="#DejaVuSans-32" transform="translate(186.855469 39.046875) scale(0.7)"/>
      </g>
     </g>
    </g>
    <g id="ytick_8">
     <g id="line2d_30">
      <g>
       <use xlink:href="#m759aa89c66" x="404.819548" y="128.721488" style="stroke: #000000; stroke-width: 0.8"/>
      </g>
     </g>
     <g id="text_32">
      <!-- $\mathdefault{10^{-1}}$ -->
      <g transform="translate(374.319548 132.520706) scale(0.1 -0.1)">
       <use xlink:href="#DejaVuSans-31" transform="translate(0 0.684375)"/>
       <use xlink:href="#DejaVuSans-30" transform="translate(63.623047 0.684375)"/>
       <use xlink:href="#DejaVuSans-2212" transform="translate(128.203125 38.965625) scale(0.7)"/>
       <use xlink:href="#DejaVuSans-31" transform="translate(186.855469 38.965625) scale(0.7)"/>
      </g>
     </g>
    </g>
    <g id="ytick_9">
     <g id="line2d_31">
      <g>
       <use xlink:href="#m759aa89c66" x="404.819548" y="83.402975" style="stroke: #000000; stroke-width: 0.8"/>
      </g>
     </g>
     <g id="text_33">
      <!-- $\mathdefault{10^{0}}$ -->
      <g transform="translate(380.219548 87.202194) scale(0.1 -0.1)">
       <use xlink:href="#DejaVuSans-31" transform="translate(0 0.765625)"/>
       <use xlink:href="#DejaVuSans-30" transform="translate(63.623047 0.765625)"/>
       <use xlink:href="#DejaVuSans-30" transform="translate(128.203125 39.046875) scale(0.7)"/>
      </g>
     </g>
    </g>
    <g id="ytick_10">
     <g id="line2d_32">
      <g>
       <use xlink:href="#m759aa89c66" x="404.819548" y="38.084463" style="stroke: #000000; stroke-width: 0.8"/>
      </g>
     </g>
     <g id="text_34">
      <!-- $\mathdefault{10^{1}}$ -->
      <g transform="translate(380.219548 41.883682) scale(0.1 -0.1)">
       <use xlink:href="#DejaVuSans-31" transform="translate(0 0.684375)"/>
       <use xlink:href="#DejaVuSans-30" transform="translate(63.623047 0.684375)"/>
       <use xlink:href="#DejaVuSans-31" transform="translate(128.203125 38.965625) scale(0.7)"/>
      </g>
     </g>
    </g>
    <g id="ytick_11">
     <g id="line2d_33">
      <defs>
       <path id="mce76af8c4e" d="M 0 0 
L -2 0 
" style="stroke: #000000; stroke-width: 0.6"/>
      </defs>
      <g>
       <use xlink:href="#mce76af8c4e" x="404.819548" y="160.397768" style="stroke: #000000; stroke-width: 0.6"/>
      </g>
     </g>
    </g>
    <g id="ytick_12">
     <g id="line2d_34">
      <g>
       <use xlink:href="#mce76af8c4e" x="404.819548" y="152.417575" style="stroke: #000000; stroke-width: 0.6"/>
      </g>
     </g>
    </g>
    <g id="ytick_13">
     <g id="line2d_35">
      <g>
       <use xlink:href="#mce76af8c4e" x="404.819548" y="146.755537" style="stroke: #000000; stroke-width: 0.6"/>
      </g>
     </g>
    </g>
    <g id="ytick_14">
     <g id="line2d_36">
      <g>
       <use xlink:href="#mce76af8c4e" x="404.819548" y="142.363719" style="stroke: #000000; stroke-width: 0.6"/>
      </g>
     </g>
    </g>
    <g id="ytick_15">
     <g id="line2d_37">
      <g>
       <use xlink:href="#mce76af8c4e" x="404.819548" y="138.775343" style="stroke: #000000; stroke-width: 0.6"/>
      </g>
     </g>
    </g>
    <g id="ytick_16">
     <g id="line2d_38">
      <g>
       <use xlink:href="#mce76af8c4e" x="404.819548" y="135.741414" style="stroke: #000000; stroke-width: 0.6"/>
      </g>
     </g>
    </g>
    <g id="ytick_17">
     <g id="line2d_39">
      <g>
       <use xlink:href="#mce76af8c4e" x="404.819548" y="133.113305" style="stroke: #000000; stroke-width: 0.6"/>
      </g>
     </g>
    </g>
    <g id="ytick_18">
     <g id="line2d_40">
      <g>
       <use xlink:href="#mce76af8c4e" x="404.819548" y="130.795149" style="stroke: #000000; stroke-width: 0.6"/>
      </g>
     </g>
    </g>
    <g id="ytick_19">
     <g id="line2d_41">
      <g>
       <use xlink:href="#mce76af8c4e" x="404.819548" y="115.079256" style="stroke: #000000; stroke-width: 0.6"/>
      </g>
     </g>
    </g>
    <g id="ytick_20">
     <g id="line2d_42">
      <g>
       <use xlink:href="#mce76af8c4e" x="404.819548" y="107.099062" style="stroke: #000000; stroke-width: 0.6"/>
      </g>
     </g>
    </g>
    <g id="ytick_21">
     <g id="line2d_43">
      <g>
       <use xlink:href="#mce76af8c4e" x="404.819548" y="101.437025" style="stroke: #000000; stroke-width: 0.6"/>
      </g>
     </g>
    </g>
    <g id="ytick_22">
     <g id="line2d_44">
      <g>
       <use xlink:href="#mce76af8c4e" x="404.819548" y="97.045207" style="stroke: #000000; stroke-width: 0.6"/>
      </g>
     </g>
    </g>
    <g id="ytick_23">
     <g id="line2d_45">
      <g>
       <use xlink:href="#mce76af8c4e" x="404.819548" y="93.456831" style="stroke: #000000; stroke-width: 0.6"/>
      </g>
     </g>
    </g>
    <g id="ytick_24">
     <g id="line2d_46">
      <g>
       <use xlink:href="#mce76af8c4e" x="404.819548" y="90.422902" style="stroke: #000000; stroke-width: 0.6"/>
      </g>
     </g>
    </g>
    <g id="ytick_25">
     <g id="line2d_47">
      <g>
       <use xlink:href="#mce76af8c4e" x="404.819548" y="87.794793" style="stroke: #000000; stroke-width: 0.6"/>
      </g>
     </g>
    </g>
    <g id="ytick_26">
     <g id="line2d_48">
      <g>
       <use xlink:href="#mce76af8c4e" x="404.819548" y="85.476637" style="stroke: #000000; stroke-width: 0.6"/>
      </g>
     </g>
    </g>
    <g id="ytick_27">
     <g id="line2d_49">
      <g>
       <use xlink:href="#mce76af8c4e" x="404.819548" y="69.760744" style="stroke: #000000; stroke-width: 0.6"/>
      </g>
     </g>
    </g>
    <g id="ytick_28">
     <g id="line2d_50">
      <g>
       <use xlink:href="#mce76af8c4e" x="404.819548" y="61.78055" style="stroke: #000000; stroke-width: 0.6"/>
      </g>
     </g>
    </g>
    <g id="ytick_29">
     <g id="line2d_51">
      <g>
       <use xlink:href="#mce76af8c4e" x="404.819548" y="56.118512" style="stroke: #000000; stroke-width: 0.6"/>
      </g>
     </g>
    </g>
    <g id="ytick_30">
     <g id="line2d_52">
      <g>
       <use xlink:href="#mce76af8c4e" x="404.819548" y="51.726695" style="stroke: #000000; stroke-width: 0.6"/>
      </g>
     </g>
    </g>
    <g id="ytick_31">
     <g id="line2d_53">
      <g>
       <use xlink:href="#mce76af8c4e" x="404.819548" y="48.138318" style="stroke: #000000; stroke-width: 0.6"/>
      </g>
     </g>
    </g>
    <g id="ytick_32">
     <g id="line2d_54">
      <g>
       <use xlink:href="#mce76af8c4e" x="404.819548" y="45.104389" style="stroke: #000000; stroke-width: 0.6"/>
      </g>
     </g>
    </g>
    <g id="ytick_33">
     <g id="line2d_55">
      <g>
       <use xlink:href="#mce76af8c4e" x="404.819548" y="42.476281" style="stroke: #000000; stroke-width: 0.6"/>
      </g>
     </g>
    </g>
    <g id="ytick_34">
     <g id="line2d_56">
      <g>
       <use xlink:href="#mce76af8c4e" x="404.819548" y="40.158125" style="stroke: #000000; stroke-width: 0.6"/>
      </g>
     </g>
    </g>
    <g id="ytick_35">
     <g id="line2d_57">
      <g>
       <use xlink:href="#mce76af8c4e" x="404.819548" y="24.442232" style="stroke: #000000; stroke-width: 0.6"/>
      </g>
     </g>
    </g>
    <g id="ytick_36">
     <g id="line2d_58">
      <g>
       <use xlink:href="#mce76af8c4e" x="404.819548" y="16.462038" style="stroke: #000000; stroke-width: 0.6"/>
      </g>
     </g>
    </g>
    <g id="ytick_37">
     <g id="line2d_59">
      <g>
       <use xlink:href="#mce76af8c4e" x="404.819548" y="10.8" style="stroke: #000000; stroke-width: 0.6"/>
      </g>
     </g>
    </g>
    <g id="text_35">
     <!-- PDF -->
     <g transform="translate(368.239861 102.160625) rotate(-90) scale(0.1 -0.1)">
      <use xlink:href="#DejaVuSans-50"/>
      <use xlink:href="#DejaVuSans-44" transform="translate(60.302734 0)"/>
      <use xlink:href="#DejaVuSans-46" transform="translate(137.304688 0)"/>
     </g>
    </g>
   </g>
   <g id="line2d_60">
    <path d="M 404.819548 78.091359 
L 413.424201 77.329657 
L 422.325566 76.760755 
L 431.820355 76.379947 
L 441.611856 76.211334 
L 451.996782 76.259493 
L 462.67842 76.530765 
L 473.953482 77.038012 
L 485.821969 77.792943 
L 498.580592 78.831039 
L 511.932639 80.141361 
L 526.174823 81.762482 
L 541.603856 83.747471 
L 557.923025 86.072861 
L 575.725755 88.838787 
L 595.012045 92.066777 
L 615.781897 95.772358 
L 638.332021 100.023269 
L 662.959131 104.893722 
L 689.959938 110.463492 
L 701.235 112.851407 
L 701.235 112.851407 
" clip-path="url(#p559d949db9)" style="fill: none; stroke-dasharray: 3.7,1.6; stroke-dashoffset: 0; stroke: #000000"/>
   </g>
   <g id="line2d_61">
    <path d="M 454.811157 217 
L 456.744177 194.852883 
L 458.821162 173.624248 
L 460.898147 154.797342 
L 462.975132 138.139328 
L 465.052117 123.438942 
L 467.129103 110.504601 
L 468.909376 100.691582 
L 470.689648 91.948516 
L 472.469921 84.183837 
L 474.250194 77.313496 
L 476.030467 71.260383 
L 477.81074 65.953783 
L 479.591013 61.328877 
L 481.371286 57.326275 
L 483.151559 53.891591 
L 484.931832 50.975044 
L 486.712105 48.531086 
L 488.492378 46.518068 
L 489.975939 45.142179 
L 491.4595 44.01879 
L 492.943061 43.129107 
L 494.426622 42.455715 
L 496.206895 41.910516 
L 497.987168 41.62798 
L 499.767441 41.584751 
L 501.547714 41.759553 
L 503.624699 42.213317 
L 505.701684 42.909785 
L 508.075381 43.97118 
L 510.449078 45.284288 
L 513.119488 47.026531 
L 516.08661 49.249699 
L 519.350443 51.996298 
L 522.910989 55.299131 
L 526.768248 59.181869 
L 531.21893 63.990758 
L 536.263037 69.793078 
L 541.900568 76.642359 
L 548.131523 84.583254 
L 554.955903 93.658465 
L 562.076995 103.49865 
L 569.494799 114.119178 
L 577.209315 125.550832 
L 584.923832 137.376617 
L 592.638348 149.607677 
L 600.352864 162.262951 
L 607.770668 174.854667 
L 615.188472 187.888105 
L 622.309564 200.844101 
L 629.430656 214.265905 
L 630.850122 217 
L 630.850122 217 
" clip-path="url(#p559d949db9)" style="fill: none; stroke: #000000; stroke-linecap: square"/>
   </g>
   <g id="patch_210">
    <path d="M 404.819548 174.04 
L 404.819548 10.8 
" style="fill: none; stroke: #000000; stroke-width: 0.8; stroke-linejoin: miter; stroke-linecap: square"/>
   </g>
   <g id="patch_211">
    <path d="M 701.235 174.04 
L 701.235 10.8 
" style="fill: none; stroke: #000000; stroke-width: 0.8; stroke-linejoin: miter; stroke-linecap: square"/>
   </g>
   <g id="patch_212">
    <path d="M 404.819548 174.04 
L 701.235 174.04 
" style="fill: none; stroke: #000000; stroke-width: 0.8; stroke-linejoin: miter; stroke-linecap: square"/>
   </g>
   <g id="patch_213">
    <path d="M 404.819548 10.8 
L 701.235 10.8 
" style="fill: none; stroke: #000000; stroke-width: 0.8; stroke-linejoin: miter; stroke-linecap: square"/>
   </g>
   <g id="legend_2">
    <g id="patch_214">
     <path d="M 612.500625 62.834375 
L 694.235 62.834375 
Q 696.235 62.834375 696.235 60.834375 
L 696.235 17.8 
Q 696.235 15.8 694.235 15.8 
L 612.500625 15.8 
Q 610.500625 15.8 610.500625 17.8 
L 610.500625 60.834375 
Q 610.500625 62.834375 612.500625 62.834375 
z
" style="fill: #ffffff; opacity: 0.8; stroke: #cccccc; stroke-linejoin: miter"/>
    </g>
    <g id="line2d_62">
     <path d="M 614.500625 23.898438 
L 624.500625 23.898438 
L 634.500625 23.898438 
" style="fill: none; stroke-dasharray: 3.7,1.6; stroke-dashoffset: 0; stroke: #000000"/>
    </g>
    <g id="text_36">
     <!-- Scipy fit -->
     <g transform="translate(642.500625 27.398438) scale(0.1 -0.1)">
      <use xlink:href="#DejaVuSans-53"/>
      <use xlink:href="#DejaVuSans-63" transform="translate(63.476562 0)"/>
      <use xlink:href="#DejaVuSans-69" transform="translate(118.457031 0)"/>
      <use xlink:href="#DejaVuSans-70" transform="translate(146.240234 0)"/>
      <use xlink:href="#DejaVuSans-79" transform="translate(209.716797 0)"/>
      <use xlink:href="#DejaVuSans-20" transform="translate(268.896484 0)"/>
      <use xlink:href="#DejaVuSans-66" transform="translate(300.683594 0)"/>
      <use xlink:href="#DejaVuSans-69" transform="translate(335.888672 0)"/>
      <use xlink:href="#DejaVuSans-74" transform="translate(363.671875 0)"/>
     </g>
    </g>
    <g id="line2d_63">
     <path d="M 614.500625 38.576563 
L 624.500625 38.576563 
L 634.500625 38.576563 
" style="fill: none; stroke: #000000; stroke-linecap: square"/>
    </g>
    <g id="text_37">
     <!-- Manual fit -->
     <g transform="translate(642.500625 42.076563) scale(0.1 -0.1)">
      <use xlink:href="#DejaVuSans-4d"/>
      <use xlink:href="#DejaVuSans-61" transform="translate(86.279297 0)"/>
      <use xlink:href="#DejaVuSans-6e" transform="translate(147.558594 0)"/>
      <use xlink:href="#DejaVuSans-75" transform="translate(210.9375 0)"/>
      <use xlink:href="#DejaVuSans-61" transform="translate(274.316406 0)"/>
      <use xlink:href="#DejaVuSans-6c" transform="translate(335.595703 0)"/>
      <use xlink:href="#DejaVuSans-20" transform="translate(363.378906 0)"/>
      <use xlink:href="#DejaVuSans-66" transform="translate(395.166016 0)"/>
      <use xlink:href="#DejaVuSans-69" transform="translate(430.371094 0)"/>
      <use xlink:href="#DejaVuSans-74" transform="translate(458.154297 0)"/>
     </g>
    </g>
    <g id="patch_215">
     <path d="M 614.500625 56.754688 
L 634.500625 56.754688 
L 634.500625 49.754688 
L 614.500625 49.754688 
z
" style="fill: #d3d3d3; stroke: #d3d3d3; stroke-linejoin: miter"/>
    </g>
    <g id="text_38">
     <!-- FPs (fold) -->
     <g transform="translate(642.500625 56.754688) scale(0.1 -0.1)">
      <use xlink:href="#DejaVuSans-46"/>
      <use xlink:href="#DejaVuSans-50" transform="translate(57.519531 0)"/>
      <use xlink:href="#DejaVuSans-73" transform="translate(116.072266 0)"/>
      <use xlink:href="#DejaVuSans-20" transform="translate(168.171875 0)"/>
      <use xlink:href="#DejaVuSans-28" transform="translate(199.958984 0)"/>
      <use xlink:href="#DejaVuSans-66" transform="translate(238.972656 0)"/>
      <use xlink:href="#DejaVuSans-6f" transform="translate(274.177734 0)"/>
      <use xlink:href="#DejaVuSans-6c" transform="translate(335.359375 0)"/>
      <use xlink:href="#DejaVuSans-64" transform="translate(363.142578 0)"/>
      <use xlink:href="#DejaVuSans-29" transform="translate(426.619141 0)"/>
     </g>
    </g>
   </g>
  </g>
 </g>
 <defs>
  <clipPath id="p79b58d63e1">
   <rect x="44.66" y="10.8" width="296.415452" height="163.24"/>
  </clipPath>
  <clipPath id="p559d949db9">
   <rect x="404.819548" y="10.8" width="296.415452" height="163.24"/>
  </clipPath>
 </defs>
</svg>
